<svg width="25" height="25" viewBox="0 0 25 25" fill="none" xmlns="http://www.w3.org/2000/svg">
<rect x="0.5" y="0.5" width="24" height="24" rx="4.5" stroke="url(#paint0_linear_338_5)" stroke-opacity="0.2"/>
<path d="M7.07889 11.904C6.68524 11.9051 6.29996 12.0176 5.9676 12.2286C5.63525 12.4395 5.36941 12.7402 5.20083 13.0959C5.03226 13.4517 4.96784 13.8478 5.01504 14.2386C5.06223 14.6294 5.21911 14.9989 5.46752 15.3043L10.763 21.7912C10.9518 22.0257 11.1938 22.2117 11.469 22.3338C11.7441 22.4559 12.0444 22.5107 12.3449 22.4934C12.9877 22.4589 13.568 22.1151 13.938 21.5497L24.9381 3.83412C24.9399 3.83116 24.9417 3.82823 24.9437 3.82535C25.0469 3.66687 25.0134 3.35282 24.8004 3.15553C24.7419 3.10135 24.6729 3.05972 24.5976 3.03322C24.5224 3.00671 24.4426 2.99588 24.363 3.0014C24.2834 3.00692 24.2059 3.02867 24.135 3.0653C24.0642 3.10194 24.0016 3.15269 23.9511 3.21443C23.9472 3.21929 23.9431 3.22407 23.9389 3.22878L12.8452 15.763C12.803 15.8107 12.7517 15.8496 12.6944 15.8773C12.637 15.905 12.5747 15.921 12.5111 15.9245C12.4475 15.9279 12.3839 15.9187 12.3239 15.8973C12.2639 15.8759 12.2087 15.8429 12.1616 15.8L8.4798 12.4495C8.09741 12.099 7.59763 11.9044 7.07889 11.904Z" fill="#3C7E80"/>
<defs>
<linearGradient id="paint0_linear_338_5" x1="26.3393" y1="24.326" x2="11.7915" y2="-5.30671" gradientUnits="userSpaceOnUse">
<stop offset="0.169792" stop-color="#5E5E5E"/>
<stop offset="1" stop-opacity="0"/>
</linearGradient>
</defs>
</svg>
