<svg width="24" height="23" viewBox="0 0 24 23" fill="none" xmlns="http://www.w3.org/2000/svg">
<path d="M23.7888 3.88574L20.1138 0.210741C19.9787 0.075702 19.7954 -0.000152588 19.6044 -0.000152588C19.4133 -0.000152588 19.2301 0.075702 19.0949 0.210741L11.9999 7.30649L4.90457 0.211116C4.76942 0.076077 4.58618 0.000222412 4.39513 0.000222412C4.20408 0.000222412 4.02084 0.076077 3.88569 0.211116L0.210693 3.88612C-0.0705566 4.16737 -0.0705566 4.62337 0.210693 4.90499L7.30644 12L0.211068 19.0954C-0.0701816 19.3766 -0.0701816 19.8326 0.211068 20.1142L3.88607 23.7892C4.16732 24.0705 4.62332 24.0705 4.90494 23.7892L11.9999 16.6935L19.0953 23.7889C19.3766 24.0701 19.8326 24.0701 20.1142 23.7889L23.7892 20.1139C24.0704 19.8326 24.0704 19.3766 23.7892 19.095L16.6934 12L23.7888 4.90462C23.8558 4.83775 23.9089 4.75833 23.9451 4.67092C23.9814 4.58351 24 4.48981 24 4.39518C24 4.30055 23.9814 4.20685 23.9451 4.11944C23.9089 4.03202 23.8558 3.95261 23.7888 3.88574Z" fill="#3C7E80"/>
</svg>
