<svg width="24" height="24" viewBox="0 0 24 24" fill="none" xmlns="http://www.w3.org/2000/svg">
<path d="M1.73034 6.23662L0.351562 7.04418V11.9982L4.58061 14.4752L8.80966 11.9982V8.43135" stroke="#3C7E80" stroke-width="0.7" stroke-miterlimit="10" stroke-linecap="round" stroke-linejoin="round"/>
<path d="M6.69016 5.8028L4.58051 4.56713L3.33936 5.29406" stroke="#3C7E80" stroke-width="0.7" stroke-miterlimit="10" stroke-linecap="round" stroke-linejoin="round"/>
<path d="M8.80962 21.9014L13.0387 19.4245V14.4705L8.80962 11.9934L4.58057 14.4705V19.4245L8.80962 21.9014Z" stroke="#3C7E80" stroke-width="0.7" stroke-miterlimit="10" stroke-linecap="round" stroke-linejoin="round"/>
<path d="M20.2126 20.1766L21.4968 19.4245V14.4705L17.2678 11.9934L13.0388 14.4705V19.4245L17.2678 21.9014L18.6251 21.1064" stroke="#3C7E80" stroke-width="0.7" stroke-miterlimit="10" stroke-linecap="round" stroke-linejoin="round"/>
<path d="M21.5649 19.4245L23.6483 20.6448" stroke="#3C7E80" stroke-width="0.7" stroke-miterlimit="10" stroke-linecap="round" stroke-linejoin="round"/>
<path d="M4.58057 4.56714V2.09852" stroke="#3C7E80" stroke-width="0.7" stroke-miterlimit="10" stroke-linecap="round" stroke-linejoin="round"/>
<path d="M2.39917 19.4245H4.58054L3.44945 21.5466" stroke="#3C7E80" stroke-width="0.7" stroke-miterlimit="10" stroke-linecap="round" stroke-linejoin="round"/>
<path d="M7.56958 15.1495V18.7454" stroke="#3C7E80" stroke-width="0.7" stroke-miterlimit="10" stroke-linecap="round" stroke-linejoin="round"/>
<path d="M10.0498 15.1495V18.7454" stroke="#3C7E80" stroke-width="0.7" stroke-miterlimit="10" stroke-linecap="round" stroke-linejoin="round"/>
<path d="M7.56958 16.8858H10.0498" stroke="#3C7E80" stroke-width="0.7" stroke-miterlimit="10" stroke-linecap="round" stroke-linejoin="round"/>
<path d="M3.59082 7.72314H5.57016" stroke="#3C7E80" stroke-width="0.7" stroke-miterlimit="10" stroke-linecap="round" stroke-linejoin="round"/>
<path d="M4.57666 7.83801V11.319" stroke="#3C7E80" stroke-width="0.7" stroke-miterlimit="10" stroke-linecap="round" stroke-linejoin="round"/>
<path d="M18.5935 15.4613C18.2998 15.2613 17.9525 15.1546 17.5972 15.1551C16.613 15.1551 15.8152 15.9576 15.8152 16.9475C15.8152 17.9374 16.613 18.7399 17.5972 18.7399C17.9969 18.7399 18.3257 18.6075 18.5752 18.384C18.627 18.3375 18.6753 18.2874 18.7198 18.2339" stroke="#3C7E80" stroke-width="0.7" stroke-miterlimit="10" stroke-linecap="round" stroke-linejoin="round"/>
<path d="M17.2676 11.8401V9.37147" stroke="#3C7E80" stroke-width="0.7" stroke-miterlimit="10" stroke-linecap="round" stroke-linejoin="round"/>
<path d="M12.7208 5.52497C12.7208 7.20769 11.3708 8.57184 9.7055 8.57184C8.04018 8.57184 6.69019 7.20769 6.69019 5.52497C6.69019 3.84226 8.04018 2.47811 9.7055 2.47811C11.3708 2.47811 12.7208 3.84226 12.7208 5.52497Z" stroke="#3C7E80" stroke-width="0.7" stroke-miterlimit="10" stroke-linecap="round" stroke-linejoin="round"/>
<path d="M9.70557 4.35164V6.69824" stroke="#3C7E80" stroke-width="0.7" stroke-miterlimit="10" stroke-linecap="round" stroke-linejoin="round"/>
<path d="M10.8667 5.52496H8.54443" stroke="#3C7E80" stroke-width="0.7" stroke-miterlimit="10" stroke-linecap="round" stroke-linejoin="round"/>
</svg>
