<svg width="94" height="56" viewBox="0 0 94 56" fill="none" xmlns="http://www.w3.org/2000/svg" xmlns:xlink="http://www.w3.org/1999/xlink">
<mask id="path-1-inside-1_313_147" fill="white">
<path d="M0 32C0 14.3269 14.3269 0 32 0H88.4412C92.0245 0 94.4446 3.65857 93.0426 6.95626L77.3681 43.825C74.2296 51.2072 66.9841 56 58.9624 56H15C6.71574 56 0 49.2843 0 41V32Z"/>
</mask>
<path d="M0 32C0 14.3269 14.3269 0 32 0H88.4412C92.0245 0 94.4446 3.65857 93.0426 6.95626L77.3681 43.825C74.2296 51.2072 66.9841 56 58.9624 56H15C6.71574 56 0 49.2843 0 41V32Z" fill="url(#pattern0)"/>
<path d="M77.3681 43.825L75.9877 43.2382L77.3681 43.825ZM93.0426 6.95626L91.6622 6.36938L93.0426 6.95626ZM32 1.5H88.4412V-1.5H32V1.5ZM91.6622 6.36938L75.9877 43.2382L78.7485 44.4119L94.423 7.54314L91.6622 6.36938ZM58.9624 54.5H15V57.5H58.9624V54.5ZM1.5 41V32H-1.5V41H1.5ZM15 54.5C7.54417 54.5 1.5 48.4558 1.5 41H-1.5C-1.5 50.1127 5.88731 57.5 15 57.5V54.5ZM75.9877 43.2382C73.0846 50.0667 66.3824 54.5 58.9624 54.5V57.5C67.5857 57.5 75.3746 52.3478 78.7485 44.4119L75.9877 43.2382ZM88.4412 1.5C90.9495 1.5 92.6436 4.061 91.6622 6.36938L94.423 7.54314C96.2456 3.25614 93.0995 -1.5 88.4412 -1.5V1.5ZM32 -1.5C13.4985 -1.5 -1.5 13.4985 -1.5 32H1.5C1.5 15.1553 15.1553 1.5 32 1.5V-1.5Z" fill="url(#paint0_linear_313_147)" fill-opacity="0.2" mask="url(#path-1-inside-1_313_147)"/>
<path d="M32 0.5H83.3198C86.5731 0.5 88.7514 3.84592 87.4349 6.82097L73.2436 38.8909C70.1206 45.9484 63.1291 50.5 55.4115 50.5H15C6.99188 50.5 0.5 44.0081 0.5 36V32C0.5 14.603 14.603 0.5 32 0.5Z" fill="white" stroke="#FF5406"/>
<defs>
<pattern id="pattern0" patternContentUnits="objectBoundingBox" width="1" height="1">
<use xlink:href="#image0_313_147" transform="matrix(0.00465116 0 0 0.00776134 0 -0.334344)"/>
</pattern>
<linearGradient id="paint0_linear_313_147" x1="98.4526" y1="54.4902" x2="76.1479" y2="-21.3231" gradientUnits="userSpaceOnUse">
<stop offset="0.169792" stop-color="#5E5E5E"/>
<stop offset="1" stop-opacity="0"/>
</linearGradient>

</defs>
</svg>
