<svg width="24" height="24" viewBox="0 0 24 24" fill="none" xmlns="http://www.w3.org/2000/svg">
<path d="M6.70484 5.82492L4.57494 4.57749L0.351562 7.05108V11.9982L4.57494 14.4717L8.79837 11.9982V8.4314" stroke="#3C7E80" stroke-width="0.7" stroke-miterlimit="10" stroke-linecap="round" stroke-linejoin="round"/>
<path d="M8.79833 21.8878L13.0217 19.4142V14.467L8.79833 11.9935L4.57495 14.467V19.4142" stroke="#3C7E80" stroke-width="0.7" stroke-miterlimit="10" stroke-linecap="round" stroke-linejoin="round"/>
<path d="M18.6555 12.8195L17.2451 11.9934L13.0217 14.467V19.4142L17.2451 21.8877L21.4685 19.4142V14.467L20.2741 13.7675" stroke="#3C7E80" stroke-width="0.7" stroke-miterlimit="10" stroke-linecap="round" stroke-linejoin="round"/>
<path d="M21.5366 19.4142L23.6483 20.651" stroke="#3C7E80" stroke-width="0.7" stroke-miterlimit="10" stroke-linecap="round" stroke-linejoin="round"/>
<path d="M4.57495 4.57745V2.11226" stroke="#3C7E80" stroke-width="0.7" stroke-miterlimit="10" stroke-linecap="round" stroke-linejoin="round"/>
<path d="M17.2451 12.0195V9.55434" stroke="#3C7E80" stroke-width="0.7" stroke-miterlimit="10" stroke-linecap="round" stroke-linejoin="round"/>
<path d="M2.39648 19.4142H4.57495L3.44536 21.5334" stroke="#3C7E80" stroke-width="0.7" stroke-miterlimit="10" stroke-linecap="round" stroke-linejoin="round"/>
<path d="M16.1099 15.2073V18.6212" stroke="#3C7E80" stroke-width="0.7" stroke-miterlimit="10" stroke-linecap="round" stroke-linejoin="round"/>
<path d="M18.4826 16.9406C18.4826 17.8978 17.9544 18.6552 17.1164 18.6699C16.8375 18.6748 16.1166 18.6776 16.1166 18.6776C16.1166 18.6776 16.1121 17.4192 16.1121 16.9368C16.1121 16.5405 16.1096 15.2037 16.1096 15.2037H17.0879C18.007 15.2037 18.4826 15.9834 18.4826 16.9406Z" stroke="#3C7E80" stroke-width="0.7" stroke-miterlimit="10" stroke-linecap="round" stroke-linejoin="round"/>
<path d="M9.56474 15.9744C9.56474 16.4293 9.19808 16.7981 8.74574 16.7981C8.52144 16.7981 7.71191 16.8018 7.71191 16.8018V15.1507H8.74574C9.19808 15.1507 9.56474 15.5195 9.56474 15.9744Z" stroke="#3C7E80" stroke-width="0.7" stroke-miterlimit="10" stroke-linecap="round" stroke-linejoin="round"/>
<path d="M9.88433 17.7627C9.88433 18.2949 9.45542 18.7263 8.92635 18.7263C8.6639 18.7263 7.71191 18.7305 7.71191 18.7305V16.7991H8.92635C9.45542 16.7991 9.88433 17.2305 9.88433 17.7627Z" stroke="#3C7E80" stroke-width="0.7" stroke-miterlimit="10" stroke-linecap="round" stroke-linejoin="round"/>
<path d="M5.89908 8.0404C5.6057 7.84076 5.25893 7.73423 4.90407 7.73473C3.92124 7.73473 3.12451 8.53605 3.12451 9.5246C3.12451 10.5131 3.92124 11.3145 4.90407 11.3145C5.30326 11.3145 5.63157 11.1823 5.8808 10.9591C5.9325 10.9127 5.98077 10.8626 6.02522 10.8092" stroke="#3C7E80" stroke-width="0.7" stroke-miterlimit="10" stroke-linecap="round" stroke-linejoin="round"/>
<path d="M7.08047 4.02638C6.83245 4.46898 6.69019 4.98005 6.69019 5.52497C6.69019 7.20769 8.04018 8.57184 9.7055 8.57184C11.3708 8.57184 12.7208 7.20769 12.7208 5.52497C12.7208 3.84221 11.3708 2.47811 9.7055 2.47811C9.25901 2.47766 8.81813 2.57764 8.41551 2.77065" stroke="#3C7E80" stroke-width="0.7" stroke-miterlimit="10" stroke-linecap="round" stroke-linejoin="round"/>
<path d="M9.70557 4.35164V6.69824" stroke="#3C7E80" stroke-width="0.7" stroke-miterlimit="10" stroke-linecap="round" stroke-linejoin="round"/>
<path d="M10.8667 5.52496H8.54443" stroke="#3C7E80" stroke-width="0.7" stroke-miterlimit="10" stroke-linecap="round" stroke-linejoin="round"/>
<path d="M11.8309 3.37712L7.57983 7.67273" stroke="#3C7E80" stroke-width="0.7" stroke-miterlimit="10" stroke-linecap="round" stroke-linejoin="round"/>
</svg>
