<svg width="24" height="24" viewBox="0 0 24 24" fill="none" xmlns="http://www.w3.org/2000/svg">
<path d="M6.70484 5.82492L4.57494 4.57749L0.351562 7.05108V11.9982L4.57494 14.4717L8.79837 11.9982V8.4314" stroke="#3C7E80" stroke-width="0.7" stroke-miterlimit="10" stroke-linecap="round" stroke-linejoin="round"/>
<path d="M8.79833 21.8878L13.0217 19.4142V14.467L8.79833 11.9935L4.57495 14.467V19.4142" stroke="#3C7E80" stroke-width="0.7" stroke-miterlimit="10" stroke-linecap="round" stroke-linejoin="round"/>
<path d="M18.6555 12.8196L17.2451 11.9935L13.0217 14.4671V19.4142L17.2451 21.8877L21.4685 19.4142V14.4671L20.2741 13.7675" stroke="#3C7E80" stroke-width="0.7" stroke-miterlimit="10" stroke-linecap="round" stroke-linejoin="round"/>
<path d="M21.5366 19.4142L23.6483 20.651" stroke="#3C7E80" stroke-width="0.7" stroke-miterlimit="10" stroke-linecap="round" stroke-linejoin="round"/>
<path d="M4.57495 4.57745V2.11226" stroke="#3C7E80" stroke-width="0.7" stroke-miterlimit="10" stroke-linecap="round" stroke-linejoin="round"/>
<path d="M17.2451 12.0196V9.55437" stroke="#3C7E80" stroke-width="0.7" stroke-miterlimit="10" stroke-linecap="round" stroke-linejoin="round"/>
<path d="M2.39648 19.4142H4.57495L3.44536 21.5335" stroke="#3C7E80" stroke-width="0.7" stroke-miterlimit="10" stroke-linecap="round" stroke-linejoin="round"/>
<path d="M9.56474 15.9744C9.56474 16.4294 9.19808 16.7982 8.74574 16.7982C8.52144 16.7982 7.71191 16.8018 7.71191 16.8018V15.1508H8.74574C9.19808 15.1508 9.56474 15.5195 9.56474 15.9744Z" stroke="#3C7E80" stroke-width="0.7" stroke-miterlimit="10" stroke-linecap="round" stroke-linejoin="round"/>
<path d="M9.88433 17.7627C9.88433 18.2949 9.45542 18.7263 8.92635 18.7263C8.6639 18.7263 7.71191 18.7306 7.71191 18.7306V16.7991H8.92635C9.45542 16.7991 9.88433 17.2306 9.88433 17.7627Z" stroke="#3C7E80" stroke-width="0.7" stroke-miterlimit="10" stroke-linecap="round" stroke-linejoin="round"/>
<path d="M5.89908 8.04043C5.6057 7.84079 5.25893 7.73426 4.90407 7.73476C3.92124 7.73476 3.12451 8.53608 3.12451 9.52463C3.12451 10.5132 3.92124 11.3145 4.90407 11.3145C5.30326 11.3145 5.63157 11.1824 5.8808 10.9591C5.9325 10.9127 5.98077 10.8626 6.02522 10.8092" stroke="#3C7E80" stroke-width="0.7" stroke-miterlimit="10" stroke-linecap="round" stroke-linejoin="round"/>
<path d="M7.08047 4.02638C6.83245 4.46898 6.69019 4.98005 6.69019 5.52497C6.69019 7.20769 8.04018 8.57184 9.7055 8.57184C11.3708 8.57184 12.7208 7.20769 12.7208 5.52497C12.7208 3.84221 11.3708 2.47811 9.7055 2.47811C9.25901 2.47766 8.81813 2.57764 8.41551 2.77065" stroke="#3C7E80" stroke-width="0.7" stroke-miterlimit="10" stroke-linecap="round" stroke-linejoin="round"/>
<path d="M9.70557 4.35164V6.69824" stroke="#3C7E80" stroke-width="0.7" stroke-miterlimit="10" stroke-linecap="round" stroke-linejoin="round"/>
<path d="M10.8667 5.52496H8.54443" stroke="#3C7E80" stroke-width="0.7" stroke-miterlimit="10" stroke-linecap="round" stroke-linejoin="round"/>
<path d="M11.8309 3.37718L7.57983 7.67279" stroke="#3C7E80" stroke-width="0.7" stroke-miterlimit="10" stroke-linecap="round" stroke-linejoin="round"/>
<g clip-path="url(#clip0_51_6805)">
<path d="M17.5638 19.03C17.2838 19.03 17.0218 18.972 16.7778 18.856C16.5338 18.74 16.3198 18.58 16.1358 18.376C15.9558 18.172 15.8138 17.94 15.7098 17.68C15.6098 17.42 15.5598 17.144 15.5598 16.852C15.5598 16.56 15.6098 16.286 15.7098 16.03C15.8138 15.774 15.9558 15.546 16.1358 15.346C16.3198 15.146 16.5338 14.99 16.7778 14.878C17.0258 14.766 17.2958 14.71 17.5878 14.71C17.9918 14.71 18.3318 14.796 18.6078 14.968C18.8878 15.136 19.0978 15.36 19.2378 15.64L18.7218 16.012C18.6098 15.78 18.4498 15.606 18.2418 15.49C18.0378 15.374 17.8138 15.316 17.5698 15.316C17.3698 15.316 17.1878 15.358 17.0238 15.442C16.8598 15.526 16.7178 15.642 16.5978 15.79C16.4818 15.934 16.3938 16.1 16.3338 16.288C16.2738 16.472 16.2438 16.666 16.2438 16.87C16.2438 17.086 16.2778 17.288 16.3458 17.476C16.4138 17.664 16.5098 17.83 16.6338 17.974C16.7578 18.114 16.9038 18.224 17.0718 18.304C17.2398 18.384 17.4218 18.424 17.6178 18.424C17.8498 18.424 18.0698 18.366 18.2778 18.25C18.4898 18.13 18.6878 17.952 18.8718 17.716V18.4C18.4998 18.82 18.0638 19.03 17.5638 19.03ZM18.8058 17.344H17.9118V16.846H19.3698V19H18.8058V17.344Z" fill="#3C7E80"/>
</g>
<defs>
<clipPath id="clip0_51_6805">
<rect width="5" height="6" fill="white" transform="translate(15 14)"/>
</clipPath>
</defs>
</svg>
