<svg width="15" height="15" viewBox="0 0 15 15" fill="none" xmlns="http://www.w3.org/2000/svg">
<g clip-path="url(#clip0_50_4733)">
<path d="M0.899934 8.40015H14.0999C14.2181 8.40015 14.3352 8.37686 14.4444 8.33162C14.5536 8.28638 14.6528 8.22007 14.7364 8.13648C14.82 8.05288 14.8863 7.95364 14.9315 7.84443C14.9767 7.73521 15 7.61815 15 7.49994C15 7.38173 14.9767 7.26468 14.9315 7.15547C14.8863 7.04626 14.82 6.94703 14.7364 6.86345C14.6528 6.77986 14.5536 6.71356 14.4444 6.66834C14.3351 6.62311 14.2181 6.59984 14.0999 6.59985H0.899934C0.663024 6.60262 0.436757 6.69868 0.270207 6.86719C0.103658 7.0357 0.0102539 7.26307 0.0102539 7.5C0.0102539 7.73693 0.103658 7.9643 0.270207 8.13281C0.436757 8.30132 0.663024 8.39738 0.899934 8.40015Z" fill="white"/>
</g>
<defs>
<clipPath id="clip0_50_4733">
<rect width="15" height="15" fill="white"/>
</clipPath>
</defs>
</svg>
