<svg width="15" height="15" viewBox="0 0 15 15" fill="none" xmlns="http://www.w3.org/2000/svg">
<path d="M8.8742 7.51218L14.715 1.67129C15.0951 1.29136 15.0951 0.677043 14.715 0.297156C14.3351 -0.0827761 13.7208 -0.0827761 13.3409 0.297156L7.49993 6.138L1.65922 0.297156C1.27911 -0.0827761 0.665019 -0.0827761 0.285086 0.297156C-0.0950287 0.677089 -0.0950287 1.29136 0.285086 1.67129L6.12575 7.51218L0.285132 13.353C-0.0949831 13.733 -0.0949831 14.3473 0.285132 14.7272C0.375253 14.8175 0.482346 14.8892 0.600255 14.9381C0.718164 14.9869 0.844566 15.012 0.972199 15.0119C1.22093 15.0119 1.46976 14.9167 1.65927 14.7272L7.49993 8.88632L13.3409 14.7272C13.431 14.8175 13.5381 14.8892 13.656 14.9381C13.7739 14.9869 13.9003 15.012 14.0279 15.0119C14.2767 15.0119 14.5255 14.9167 14.715 14.7272C15.0951 14.3472 15.0951 13.733 14.715 13.353L8.8742 7.51218Z" fill="#3C7E80"/>
</svg>
