<svg width="15" height="15" viewBox="0 0 15 15" fill="none" xmlns="http://www.w3.org/2000/svg">
<path d="M14.2499 6.75H8.25004V0.749953C8.25004 0.336058 7.91398 0 7.49995 0C7.08605 0 6.75 0.336058 6.75 0.749953V6.75H0.749953C0.336058 6.75 0 7.08605 0 7.49995C0 7.91398 0.336058 8.25004 0.749953 8.25004H6.75V14.2499C6.75 14.664 7.08605 15 7.49995 15C7.91398 15 8.25004 14.664 8.25004 14.2499V8.25004H14.2499C14.664 8.25004 15 7.91398 15 7.49995C15 7.08605 14.664 6.75 14.2499 6.75Z" fill="white"/>
</svg>
