<?xml version="1.0" standalone="no"?>
<!DOCTYPE svg PUBLIC "-//W3C//DTD SVG 1.0//EN" "http://www.w3.org/TR/2001/REC-SVG-20010904/DTD/svg10.dtd">
<svg xmlns="http://www.w3.org/2000/svg" xmlns:xlink="http://www.w3.org/1999/xlink" id="body_1" width="205" height="154">

<g transform="matrix(6.416667 0 0 6.416667 19.083332 -0)">
	<g>
        <path d="M20.4 5.4C 20.1 4 18.8 2.9 17.3 2.9C 15.799999 2.9 14.499999 4 14.199999 5.4L14.199999 5.4L3 5.4L3 6.7L14.3 6.7C 14.6 8.099999 15.900001 9.2 17.4 9.2C 18.9 9.2 20.199999 8.099999 20.5 6.7L20.5 6.7L23 6.7L23 5.4L20.4 5.4zM17.3 7.9C 16.3 7.9 15.4 7.1 15.4 6C 15.4 4.9 16.199999 4.1 17.3 4.1C 18.3 4.1 19.199999 4.9 19.199999 6C 19.199999 7.1 18.4 7.9 17.3 7.9z" stroke="#454545" stroke-width="0.75" fill="#454545" fill-rule="nonzero" />
        <path d="M8.3 9.2C 6.8 9.2 5.5 10.3 5.2000003 11.7L5.2000003 11.7L3 11.7L3 13L5.3 13C 5.6000004 14.4 6.9 15.5 8.4 15.5C 9.9 15.5 11.2 14.4 11.5 13L11.5 13L23 13L23 11.7L11.3 11.7C 11.1 10.2 9.8 9.2 8.3 9.2zM8.3 14.2C 7.3 14.2 6.4 13.4 6.4 12.3C 6.4 11.200001 7.2000003 10.400001 8.3 10.400001C 9.4 10.400001 10.2 11.200001 10.2 12.3C 10.2 13.4 9.3 14.2 8.3 14.2z" stroke="#454545" stroke-width="0.75" fill="#454545" fill-rule="nonzero" />
        <path d="M15.2 15.4C 13.7 15.4 12.4 16.5 12.1 17.9L12.1 17.9L3 17.9L3 19.199999L12.1 19.199999C 12.400001 20.599998 13.700001 21.699999 15.200001 21.699999C 16.7 21.699999 18 20.599998 18.300001 19.199999L18.300001 19.199999L23 19.199999L23 17.9L18.2 17.9C 17.9 16.5 16.7 15.4 15.2 15.4zM15.2 20.4C 14.2 20.4 13.3 19.6 13.3 18.5C 13.3 17.5 14.1 16.6 15.2 16.6C 16.3 16.6 17.1 17.4 17.1 18.5C 17 19.6 16.2 20.4 15.2 20.4z" stroke="#454545" stroke-width="0.75" fill="#454545" fill-rule="nonzero" />
	</g>
</g>
</svg>