<svg width="231" height="151" viewBox="0 0 231 151" fill="none" xmlns="http://www.w3.org/2000/svg">
<path d="M62 93V124.133" stroke="#3C7E80" stroke-opacity="0.3" stroke-width="2" stroke-miterlimit="10" stroke-linecap="round" stroke-linejoin="round"/>
<path d="M83.4736 93V124.133" stroke="#3C7E80" stroke-opacity="0.3" stroke-width="2" stroke-miterlimit="10" stroke-linecap="round" stroke-linejoin="round"/>
<path d="M62 108.033H83.4739" stroke="#3C7E80" stroke-opacity="0.3" stroke-width="2" stroke-miterlimit="10" stroke-linecap="round" stroke-linejoin="round"/>
<path d="M1 65.2484L37.566 86.6643L74.1323 65.2484V34.3671M202.229 11.8002L183.788 0.999962L147.222 22.4163" stroke="#3C7E80" stroke-opacity="0.3" stroke-width="2" stroke-miterlimit="10" stroke-linecap="round" stroke-linejoin="round"/>
<path d="M74.1321 150.872L110.698 129.456V86.6238L74.1321 65.208M37.5662 86.6238V129.456" stroke="#3C7E80" stroke-opacity="0.3" stroke-width="2" stroke-miterlimit="10" stroke-linecap="round" stroke-linejoin="round"/>
<path d="M159.476 72.3596L147.265 65.2075L110.699 86.6238V129.456L147.265 150.872L183.831 129.456V86.6238L173.489 80.567" stroke="#3C7E80" stroke-opacity="0.3" stroke-width="2" stroke-miterlimit="10" stroke-linecap="round" stroke-linejoin="round"/>
<path d="M184.42 129.456L202.704 140.165" stroke="#3C7E80" stroke-opacity="0.3" stroke-width="2" stroke-miterlimit="10" stroke-linecap="round" stroke-linejoin="round"/>
<path d="M147.222 65.6559L147.222 22.6559" stroke="#3C7E80" stroke-opacity="0.3" stroke-width="2" stroke-miterlimit="10" stroke-linecap="round" stroke-linejoin="round"/>
<path d="M137.434 93.0326V122.59" stroke="#3C7E80" stroke-opacity="0.3" stroke-width="2" stroke-miterlimit="10" stroke-linecap="round" stroke-linejoin="round"/>
<path d="M154.042 99.1314C154.042 103.07 150.868 106.263 146.951 106.263C145.009 106.263 138 106.295 138 106.295V92H146.951C150.868 92 154.042 95.1927 154.042 99.1314Z" stroke="#3C7E80" stroke-opacity="0.3" stroke-width="2" stroke-miterlimit="10" stroke-linecap="round" stroke-linejoin="round"/>
<path d="M156.809 114.614C156.809 119.222 153.095 122.957 148.515 122.957C146.242 122.957 138 122.994 138 122.994V106.271H148.515C153.095 106.271 156.809 110.007 156.809 114.614Z" stroke="#3C7E80" stroke-opacity="0.3" stroke-width="2" stroke-miterlimit="10" stroke-linecap="round" stroke-linejoin="round"/>
<path d="M121.022 41.6464C118.482 39.9179 115.48 38.9956 112.407 38.9999C103.898 38.9999 97 45.9378 97 54.4966C97 63.0554 103.898 69.9937 112.407 69.9937C115.864 69.9937 118.706 68.8492 120.864 66.9166C121.312 66.5147 121.729 66.081 122.114 65.6187" stroke="#3C7E80" stroke-opacity="0.3" stroke-width="2" stroke-miterlimit="10" stroke-linecap="round" stroke-linejoin="round"/>
<path d="M29 28H46.1371" stroke="#3C7E80" stroke-opacity="0.3" stroke-width="2" stroke-miterlimit="10" stroke-linecap="round" stroke-linejoin="round"/>
<path d="M37.5339 28.9947V59.1333" stroke="#3C7E80" stroke-opacity="0.3" stroke-width="2" stroke-miterlimit="10" stroke-linecap="round" stroke-linejoin="round"/>
<path d="M216.984 125.56C214.68 125.56 212.552 125.064 210.6 124.072C208.648 123.08 206.952 121.768 205.512 120.136C204.072 118.472 202.952 116.616 202.152 114.568C201.384 112.488 201 110.376 201 108.232C201 105.992 201.384 103.848 202.152 101.8C202.92 99.72 204.008 97.88 205.416 96.28C206.824 94.648 208.488 93.368 210.408 92.44C212.328 91.48 214.424 91 216.696 91C220.088 91 222.824 91.704 224.904 93.112C227.016 94.488 228.616 96.264 229.704 98.44L227.688 99.64C226.536 97.4 225 95.784 223.08 94.792C221.192 93.768 219.048 93.256 216.648 93.256C214.632 93.256 212.808 93.688 211.176 94.552C209.544 95.384 208.152 96.52 207 97.96C205.848 99.368 204.968 100.968 204.36 102.76C203.752 104.552 203.448 106.392 203.448 108.28C203.448 110.296 203.8 112.2 204.504 113.992C205.208 115.784 206.184 117.384 207.432 118.792C208.68 120.2 210.136 121.304 211.8 122.104C213.464 122.904 215.24 123.304 217.128 123.304C219.336 123.304 221.416 122.776 223.368 121.72C225.32 120.632 227.192 118.936 228.984 116.632V119.368C225.592 123.496 221.592 125.56 216.984 125.56ZM228.456 110.728H220.728V108.76H230.568V125.32H228.456V110.728Z" fill="#3C7E80" fill-opacity="0.3"/>
<path d="M191.81 42.7684C191.81 50.3557 187.623 56.3594 180.981 56.4761C178.77 56.5151 173.055 56.5366 173.055 56.5366C173.055 56.5366 173.02 46.5624 173.02 42.7379C173.02 39.5967 173 29.0001 173 29.0001H180.754C188.04 29.0001 191.81 35.181 191.81 42.7684Z" stroke="#3C7E80" stroke-opacity="0.3" stroke-width="2" stroke-miterlimit="10" stroke-linecap="round" stroke-linejoin="round"/>
</svg>
