<svg width="195" height="18" viewBox="0 0 195 18" fill="none" xmlns="http://www.w3.org/2000/svg">
<path d="M0.371094 9.09473C0.371094 7.7002 0.643715 6.47999 1.18896 5.4341C1.7342 4.37305 2.4309 3.49389 3.27905 2.79662C4.14236 2.09936 5.1041 1.57641 6.1643 1.22778C7.22449 0.87915 8.26197 0.704834 9.27672 0.704834C10.7913 0.704834 12.1998 1.00041 13.5024 1.59157C14.8049 2.18273 15.8878 3.03157 16.7511 4.1381L12.0938 8.8901H8.82236L13.0707 4.54736C12.5255 4.18357 11.9272 3.90315 11.2759 3.7061C10.6398 3.50905 10.0037 3.41052 9.3676 3.41052C8.36799 3.41052 7.48954 3.57726 6.73226 3.91073C5.97498 4.22905 5.33886 4.65347 4.82391 5.18399C4.3241 5.71452 3.94546 6.32083 3.68799 7.00294C3.44566 7.68505 3.32449 8.38231 3.32449 9.09473C3.32449 9.80715 3.44566 10.5044 3.68799 11.1865C3.94546 11.8686 4.3241 12.4749 4.82391 13.0055C5.33886 13.536 5.97498 13.968 6.73226 14.3015C7.48954 14.6198 8.36799 14.7789 9.3676 14.7789C10.4884 14.7789 11.488 14.544 12.3664 14.0741C13.26 13.6042 13.9946 12.9979 14.5701 12.2552L16.7511 14.0059C16.3119 14.5516 15.8121 15.0442 15.2517 15.4838C14.6913 15.9082 14.0855 16.272 13.4342 16.5751C12.7829 16.8631 12.1014 17.0829 11.3895 17.2345C10.6928 17.4013 9.98857 17.4846 9.27672 17.4846C8.24682 17.4846 7.20177 17.3103 6.14158 16.9617C5.09653 16.613 4.14236 16.0901 3.27905 15.3928C2.4309 14.6956 1.7342 13.824 1.18896 12.7781C0.643715 11.717 0.371094 10.4893 0.371094 9.09473ZM22.9101 8.57178H25.659L24.0005 12.0733H32.1792L26.4996 0.909466H29.5666L37.6543 17.0526H34.7009L33.3833 14.4606H22.8873L21.6605 17.0526H18.7299L22.9101 8.57178ZM54.1536 1.13683H56.9253V17.0526H54.1536L39.6592 1.13683H43.2033L54.1536 13.2783V1.13683ZM40.2272 8.09431H42.9989V17.0526H40.2272V8.09431ZM74.3207 1.13683H77.0923V17.0526H74.3207L59.8263 1.13683H63.3704L74.3207 13.2783V1.13683ZM60.3943 8.09431H63.1659V17.0526H60.3943V8.09431ZM83.8328 8.57178H86.5817L84.9233 12.0733H93.1019L87.4223 0.909466H90.4893L98.5773 17.0526H95.6239L94.306 14.4606H83.8101L82.5833 17.0526H79.6526L83.8328 8.57178ZM100.9 1.13683H103.922L110.919 13.1419L117.894 1.13683H120.688V17.0526H117.894V5.95705L111.419 17.0526H110.397L100.9 1.13683ZM101.15 9.43578H103.922V17.0526H101.15V9.43578ZM124.157 1.13683H138.197V3.5242H128.042L129.178 5.95705H126.406L124.157 1.13683ZM137.289 7.88968V10.277H124.725V7.88968H137.289ZM138.334 14.6653V17.0526H124.157V14.6653H138.334ZM155.123 1.13683H157.894V17.0526H155.123L140.628 1.13683H144.172L155.123 13.2783V1.13683ZM141.196 8.09431H143.968V17.0526H141.196V8.09431ZM177.992 1.13683V3.47873H160.249V1.13683H177.992ZM167.724 6.02526H170.518V17.0526H167.724V6.02526ZM180.399 1.13683H194.439V3.5242H184.284L185.419 5.95705H182.648L180.399 1.13683ZM193.53 7.88968V10.277H180.967V7.88968H193.53ZM194.575 14.6653V17.0526H180.399V14.6653H194.575Z" fill="#3C7E80"/>
</svg>
