<svg width="24" height="24" viewBox="0 0 24 24" fill="none" xmlns="http://www.w3.org/2000/svg">
<path d="M8.71795 0H1.82747C0.819878 0 0.000244141 0.819634 0.000244141 1.82723V8.71771C0.000244141 9.7253 0.819878 10.5449 1.82747 10.5449H8.71795C9.72555 10.5449 10.5452 9.7253 10.5452 8.71771V1.82723C10.545 0.819634 9.72555 0 8.71795 0ZM22.1729 0H15.2824C14.2748 0 13.4551 0.819634 13.4551 1.82723V8.71771C13.4551 9.7253 14.2748 10.5449 15.2824 10.5449H22.1729C23.1804 10.5449 24.0001 9.7253 24.0001 8.71771V1.82723C24.0001 0.819634 23.1804 0 22.1729 0ZM8.71795 13.4551H1.82747C0.819878 13.4551 0.000244141 14.2746 0.000244141 15.2822V22.1727C0.000244141 23.1803 0.819878 23.9999 1.82747 23.9999H8.71795C9.72555 23.9999 10.5452 23.1803 10.5452 22.1727V15.2822C10.545 14.2746 9.72555 13.4551 8.71795 13.4551ZM22.1729 13.4551H15.2824C14.2748 13.4551 13.4551 14.2747 13.4551 15.2823V22.1728C13.4551 23.1804 14.2748 24 15.2824 24H22.1729C23.1804 23.9999 24.0001 23.1803 24.0001 22.1727V15.2822C24.0001 14.2746 23.1804 13.4551 22.1729 13.4551Z" fill="#3C7E80"/>
</svg>
