<svg width="15" height="15" viewBox="0 0 15 15" fill="none" xmlns="http://www.w3.org/2000/svg">
<path fill-rule="evenodd" clip-rule="evenodd" d="M11.5336 13.484L12.644 14.5942C12.903 14.8528 13.2542 14.998 13.6202 14.9979C13.9863 14.9978 14.3373 14.8523 14.5962 14.5935C14.8551 14.3347 15.0006 13.9837 15.0008 13.6176C15.001 13.2516 14.8559 12.9004 14.5973 12.6413L13.4867 11.5308C12.8356 12.1819 12.1846 12.833 11.5337 13.484H11.5336ZM10.8703 12.8208L10.3957 12.3462C9.00386 13.2552 7.3245 13.6162 5.68207 13.3592C4.03965 13.1023 2.55072 12.2458 1.50295 10.9552C0.455185 9.66455 -0.0770681 8.03139 0.00902516 6.37123C0.0951184 4.71106 0.793448 3.14172 1.9691 1.96639C3.14475 0.791836 4.71385 0.0944711 6.37349 0.00891868C8.03313 -0.0766337 9.66562 0.455693 10.9558 1.50313C12.246 2.55057 13.1024 4.03885 13.3597 5.68066C13.617 7.32246 13.2569 9.00138 12.349 10.3933L12.8234 10.8675C12.1722 11.5185 11.5212 12.1696 10.8704 12.8208H10.8703ZM2.63203 10.8077C1.54996 9.72286 0.942709 8.25288 0.94366 6.72063C0.944612 5.18838 1.55368 3.71916 2.6371 2.63565C3.72052 1.55214 5.1897 0.942949 6.72195 0.941872C8.25419 0.940794 9.72423 1.54792 10.8092 2.6299C13.0639 4.88421 13.0639 8.55136 10.8092 10.8077C9.72474 11.8919 8.25406 12.501 6.72058 12.501C5.18711 12.501 3.71645 11.8919 2.63203 10.8077Z" fill="white"/>
</svg>
