<svg width="45" height="45" viewBox="0 0 45 45" fill="none" xmlns="http://www.w3.org/2000/svg">
<g clip-path="url(#clip0_56_354)">
<path d="M12.1875 45C9.77705 45 7.42072 44.2852 5.41649 42.946C3.41227 41.6069 1.85017 39.7034 0.927724 37.4765C0.00528065 35.2495 -0.236073 32.799 0.234185 30.4348C0.704442 28.0707 1.86519 25.8991 3.56964 24.1946C5.27409 22.4902 7.4457 21.3294 9.80984 20.8592C12.174 20.3889 14.6245 20.6303 16.8515 21.5527C19.0784 22.4752 20.9819 24.0373 22.321 26.0415C23.6602 28.0457 24.375 30.402 24.375 32.8125C24.375 36.0448 23.091 39.1448 20.8054 41.4304C18.5198 43.716 15.4198 45 12.1875 45ZM12.1875 22.5C10.1479 22.5 8.15407 23.1048 6.45819 24.238C4.76231 25.3711 3.44053 26.9817 2.66 28.8661C1.87947 30.7504 1.67525 32.8239 2.07316 34.8244C2.47107 36.8248 3.45324 38.6623 4.89547 40.1045C6.3377 41.5468 8.17521 42.5289 10.1756 42.9269C12.1761 43.3248 14.2496 43.1205 16.1339 42.34C18.0183 41.5595 19.6289 40.2377 20.762 38.5418C21.8952 36.8459 22.5 34.8521 22.5 32.8125C22.5 31.4582 22.2333 30.1173 21.715 28.8661C21.1968 27.6149 20.4371 26.4781 19.4795 25.5205C18.5219 24.5629 17.3851 23.8032 16.1339 23.285C14.8828 22.7667 13.5418 22.5 12.1875 22.5Z" fill="#3C7E80"/>
<path d="M12.1875 41.25C11.9389 41.25 11.7004 41.1512 11.5246 40.9754C11.3488 40.7996 11.25 40.5611 11.25 40.3125C11.25 40.0639 11.3488 39.8254 11.5246 39.6496C11.7004 39.4738 11.9389 39.375 12.1875 39.375C13.794 39.3877 15.3495 38.8107 16.559 37.7532C17.7685 36.6958 18.5481 35.2314 18.75 33.6375C18.7798 33.3889 18.9072 33.1623 19.1041 33.0075C19.3011 32.8528 19.5514 32.7827 19.8 32.8125C20.0486 32.8423 20.2752 32.9697 20.43 33.1666C20.5847 33.3636 20.6548 33.6139 20.625 33.8625C20.3678 35.9137 19.3665 37.7991 17.8112 39.1609C16.2558 40.5227 14.2547 41.2661 12.1875 41.25ZM36.5625 31.875C34.8937 31.875 33.2624 31.3802 31.8749 30.453C30.4873 29.5259 29.4059 28.2081 28.7673 26.6664C28.1287 25.1246 27.9616 23.4281 28.2871 21.7914C28.6127 20.1547 29.4163 18.6513 30.5963 17.4713C31.7763 16.2913 33.2797 15.4877 34.9164 15.1621C36.5531 14.8366 38.2496 15.0037 39.7914 15.6423C41.3331 16.2809 42.6509 17.3623 43.578 18.7499C44.5051 20.1374 45 21.7687 45 23.4375C45 25.6753 44.111 27.8214 42.5287 29.4037C40.9464 30.9861 38.8003 31.875 36.5625 31.875ZM36.5625 16.875C35.2646 16.875 33.9958 17.2599 32.9166 17.981C31.8374 18.7021 30.9962 19.727 30.4995 20.9261C30.0028 22.1253 29.8729 23.4448 30.1261 24.7178C30.3793 25.9908 31.0043 27.1601 31.9221 28.0779C32.8399 28.9957 34.0092 29.6207 35.2822 29.8739C36.5552 30.1271 37.8747 29.9972 39.0739 29.5005C40.273 29.0038 41.2979 28.1626 42.019 27.0834C42.7401 26.0042 43.125 24.7354 43.125 23.4375C43.125 21.697 42.4336 20.0278 41.2029 18.7971C39.9722 17.5664 38.303 16.875 36.5625 16.875Z" fill="#3C7E80"/>
<path d="M41.25 24.375C41.0014 24.375 40.7629 24.2762 40.5871 24.1004C40.4113 23.9246 40.3125 23.6861 40.3125 23.4375C40.3125 22.4429 39.9174 21.4891 39.2142 20.7859C38.5109 20.0826 37.5571 19.6875 36.5625 19.6875C36.3139 19.6875 36.0754 19.5887 35.8996 19.4129C35.7238 19.2371 35.625 18.9986 35.625 18.75C35.625 18.5014 35.7238 18.2629 35.8996 18.0871C36.0754 17.9113 36.3139 17.8125 36.5625 17.8125C41.7375 17.8125 43.5094 24.375 41.25 24.375ZM22.5 13.125C21.2021 13.125 19.9333 12.7401 18.8541 12.019C17.7749 11.2979 16.9337 10.273 16.437 9.07386C15.9403 7.87472 15.8104 6.55522 16.0636 5.28222C16.3168 4.00922 16.9418 2.8399 17.8596 1.92211C18.7774 1.00433 19.9467 0.379315 21.2197 0.1261C22.4927 -0.127116 23.8122 0.00284348 25.0114 0.499544C26.2105 0.996244 27.2354 1.83738 27.9565 2.91657C28.6776 3.99577 29.0625 5.26456 29.0625 6.5625C29.0625 8.30299 28.3711 9.97218 27.1404 11.2029C25.9097 12.4336 24.2405 13.125 22.5 13.125ZM22.5 1.875C21.5729 1.875 20.6666 2.14992 19.8958 2.66499C19.1249 3.18006 18.5241 3.91215 18.1693 4.76867C17.8145 5.6252 17.7217 6.5677 17.9026 7.47699C18.0834 8.38628 18.5299 9.22151 19.1854 9.87707C19.841 10.5326 20.6762 10.9791 21.5855 11.1599C22.4948 11.3408 23.4373 11.248 24.2938 10.8932C25.1504 10.5384 25.8824 9.93759 26.3975 9.16674C26.9126 8.39588 27.1875 7.4896 27.1875 6.5625C27.1875 5.3193 26.6936 4.12702 25.8146 3.24794C24.9355 2.36886 23.7432 1.875 22.5 1.875Z" fill="#3C7E80"/>
<path d="M19.6875 7.5C17.7188 7.5 18.9281 2.8125 22.5 2.8125C22.7486 2.8125 22.9871 2.91127 23.1629 3.08709C23.3387 3.2629 23.4375 3.50136 23.4375 3.75C23.4375 3.99864 23.3387 4.2371 23.1629 4.41291C22.9871 4.58873 22.7486 4.6875 22.5 4.6875C22.0027 4.6875 21.5258 4.88504 21.1742 5.23667C20.8225 5.58831 20.625 6.06522 20.625 6.5625C20.625 6.81114 20.5262 7.0496 20.3504 7.22541C20.1746 7.40123 19.9361 7.5 19.6875 7.5ZM7.5 16.875C6.5729 16.875 5.66662 16.6001 4.89577 16.085C4.12491 15.5699 3.5241 14.8379 3.16932 13.9813C2.81453 13.1248 2.7217 12.1823 2.90257 11.273C3.08344 10.3637 3.52988 9.5285 4.18544 8.87294C4.841 8.21738 5.67623 7.77094 6.58552 7.59007C7.4948 7.4092 8.4373 7.50203 9.29383 7.85681C10.1504 8.2116 10.8824 8.81241 11.3975 9.58326C11.9126 10.3541 12.1875 11.2604 12.1875 12.1875C12.1875 13.4307 11.6936 14.623 10.8146 15.5021C9.93549 16.3811 8.7432 16.875 7.5 16.875ZM7.5 9.375C6.94374 9.375 6.39997 9.53995 5.93746 9.84899C5.47495 10.158 5.11446 10.5973 4.90159 11.1112C4.68872 11.6251 4.63302 12.1906 4.74154 12.7362C4.85006 13.2818 5.11793 13.7829 5.51126 14.1762C5.9046 14.5696 6.40574 14.8374 6.95131 14.946C7.49688 15.0545 8.06238 14.9988 8.5763 14.7859C9.09022 14.573 9.52947 14.2126 9.83851 13.75C10.1476 13.2875 10.3125 12.7438 10.3125 12.1875C10.3125 11.4416 10.0162 10.7262 9.48874 10.1988C8.96129 9.67132 8.24592 9.375 7.5 9.375Z" fill="#3C7E80"/>
</g>
<defs>
<clipPath id="clip0_56_354">
<rect width="45" height="45" fill="white"/>
</clipPath>
</defs>
</svg>
