<svg width="24" height="24" viewBox="0 0 24 24" fill="none" xmlns="http://www.w3.org/2000/svg">
<path d="M18.5625 22.6127H5.4375V22.2377C5.4375 19.5377 8.4 17.3252 12 17.3252C15.6 17.3252 18.5625 19.5377 18.5625 22.2377V22.6127ZM6.225 21.8627H17.8125C17.55 19.7627 15.0375 18.0752 12.0375 18.0752C9.0375 18.0752 6.4875 19.7627 6.225 21.8627Z" fill="#3C7E80"/>
<path d="M11.625 5.4375H12.375V17.7H11.625V5.4375Z" fill="#3C7E80"/>
<path d="M8.40527 11.2504L8.81102 10.6196L12.2171 12.8108L11.8114 13.4415L8.40527 11.2504Z" fill="#3C7E80"/>
<path d="M6.93749 11.7003C6.14999 11.7003 5.32499 11.4753 4.64999 11.0253C3.41249 10.2378 2.69999 8.81278 2.73749 7.31278V7.08778L2.92499 6.97528C4.23749 6.33778 5.84999 6.41278 7.08749 7.23778C8.32499 8.02528 9.03749 9.45028 8.99999 10.9503V11.1753L8.77499 11.2503C8.21249 11.5503 7.57499 11.7003 6.93749 11.7003ZM3.48749 7.57528C3.52499 8.70028 4.08749 9.75028 5.06249 10.3878C6.03749 11.0253 7.19999 11.1378 8.24999 10.6878C8.21249 9.56278 7.64999 8.51278 6.67499 7.87528C5.73749 7.23778 4.53749 7.16278 3.48749 7.57528ZM11.895 14.7063L15.3007 12.5152L15.7065 13.1459L12.3007 15.337L11.895 14.7063Z" fill="#3C7E80"/>
<path d="M17.175 13.5752C16.5375 13.5752 15.9 13.4252 15.3 13.1627L15.1125 13.0502V12.8252C15.0375 11.3627 15.7875 9.93775 17.025 9.11275C18.2625 8.32525 19.8375 8.21275 21.1875 8.85025L21.375 8.96275V9.18775C21.45 10.6502 20.7 12.0752 19.4625 12.9002C18.7875 13.3502 17.9625 13.5752 17.175 13.5752ZM15.8625 12.5627C16.9125 13.0127 18.1125 12.9002 19.05 12.2627C20.025 11.6252 20.5875 10.6127 20.625 9.45025C19.575 9.00025 18.375 9.11275 17.4375 9.75025C16.4625 10.3877 15.9 11.4377 15.8625 12.5627ZM13.7625 6.41275C13.125 6.41275 12.4875 6.26275 11.8875 6.00025L11.7 5.88775V5.66275C11.625 4.20025 12.375 2.77525 13.6125 1.95025C14.85 1.16275 16.425 1.05025 17.775 1.68775L17.9625 1.80025V2.02525C18.0375 3.48775 17.2875 4.91275 16.05 5.73775C15.375 6.18775 14.5875 6.41275 13.7625 6.41275ZM12.45 5.40025C13.5 5.85025 14.7 5.73775 15.6375 5.10025C16.6125 4.46275 17.175 3.45025 17.2125 2.28775C16.1625 1.83775 14.9625 1.95025 14.025 2.58775C13.05 3.22525 12.4875 4.23775 12.45 5.40025Z" fill="#3C7E80"/>
<path d="M10.2749 6.41268C9.4874 6.41268 8.6624 6.18768 7.9874 5.73768C6.7499 4.95018 6.0374 3.52518 6.0749 2.02518V1.80018L6.2624 1.68768C7.5749 1.05018 9.1874 1.12518 10.4249 1.95018C11.6624 2.77518 12.3749 4.16268 12.3374 5.66268V5.88768L12.1499 6.00018C11.5499 6.26268 10.9124 6.41268 10.2749 6.41268ZM6.8249 2.28768C6.8624 3.41268 7.4249 4.46268 8.3999 5.10018C9.3749 5.73768 10.5374 5.85018 11.5874 5.40018C11.5499 4.27518 10.9874 3.22518 10.0124 2.58768C9.0749 1.95018 7.8749 1.83768 6.8249 2.28768Z" fill="#3C7E80"/>
</svg>
