<svg width="24" height="24" viewBox="0 0 24 24" fill="none" xmlns="http://www.w3.org/2000/svg">
<g clip-path="url(#clip0_50_4907)">
<path d="M22.074 6.21955C21.844 6.44952 21.6048 6.63627 21.3529 6.78458L17.262 2.69347C17.4103 2.44171 17.5968 2.20255 17.827 1.97239C18.2668 1.53257 18.2668 0.816832 17.8269 0.376816C17.387 -0.0630117 16.6713 -0.0631992 16.2312 0.376816C14.4002 2.20789 14.3735 4.42124 14.6939 6.41966C12.3675 5.94013 9.79586 5.73613 7.74283 7.78893C6.81489 8.71705 6.28131 9.80713 6.11177 11.1216C6.09984 11.2142 6.12517 11.3078 6.1822 11.3817C6.23924 11.4557 6.32329 11.5039 6.41589 11.5159C6.60817 11.5408 6.78522 11.4045 6.80992 11.2117C6.95899 10.0574 7.4268 9.10068 8.24074 8.28679C10.1322 6.39533 12.5217 6.66758 14.8294 7.16802C14.8983 7.51279 14.9592 7.78325 15.0265 8.08044C12.7336 7.55896 10.5129 7.19038 8.83821 8.88922C5.09477 12.6379 11.4557 19.0333 7.27117 23.2177C7.10585 23.3831 6.83664 23.3831 6.67131 23.2177C6.50585 23.0524 6.50585 22.7833 6.67131 22.6179C9.32472 19.9643 6.95388 16.1525 6.76802 12.503C6.75794 12.3089 6.59406 12.1591 6.3985 12.1693C6.30524 12.1741 6.21768 12.2157 6.15508 12.285C6.09248 12.3543 6.05997 12.4456 6.0647 12.5389C6.10333 13.2958 6.23186 14.0544 6.37342 14.74C4.375 14.4197 2.1618 14.4464 0.330768 16.2773C-0.110186 16.7181 -0.110326 17.432 0.330768 17.873C0.771674 18.3141 1.48544 18.3141 1.92653 17.873C2.1565 17.6429 2.39561 17.4563 2.64742 17.308L6.73853 21.399C6.59003 21.6509 6.40342 21.8901 6.17346 22.1201C5.73344 22.5598 5.73344 23.2758 6.17346 23.7156C6.61328 24.1556 7.32906 24.1556 7.76908 23.7156C9.60011 21.8846 9.62683 19.6712 9.30639 17.6728C11.9618 18.2201 14.3347 18.2263 16.2575 16.3035C18.3104 14.2506 18.1061 11.6785 17.6265 9.35211C18.2945 9.45829 18.9654 9.52255 19.6409 9.50132C19.7342 9.49829 19.8225 9.45836 19.8864 9.39028C19.9503 9.3222 19.9846 9.23154 19.9817 9.13822C19.9754 8.94397 19.8132 8.79069 19.6187 8.79744C18.9878 8.81727 18.2987 8.75807 17.4648 8.61107C17.3971 8.31388 17.3312 8.03394 17.257 7.712C19.2098 8.10514 21.0685 8.22069 22.5718 6.71741C22.7372 6.55203 23.0062 6.55203 23.1717 6.71741C23.2111 6.75677 23.2424 6.80352 23.2638 6.85499C23.2851 6.90645 23.2961 6.96162 23.2961 7.01734C23.2961 7.07306 23.2851 7.12823 23.2638 7.17969C23.2424 7.23116 23.2111 7.27791 23.1717 7.31727C22.5131 7.97605 21.7691 8.40383 20.8975 8.6248C20.8077 8.6483 20.7307 8.70639 20.6835 8.78639C20.6362 8.8664 20.6225 8.96183 20.6454 9.0519C20.6682 9.14196 20.7257 9.21934 20.8054 9.26718C20.885 9.31501 20.9803 9.32942 21.0706 9.30725C22.0685 9.05418 22.9187 8.56621 23.6695 7.81513C23.8827 7.60199 24.0001 7.31872 24.0001 7.01732C24.0001 6.01518 22.7806 5.51291 22.074 6.2195V6.21955ZM1.42867 17.3751C1.3893 17.4145 1.34253 17.4458 1.29105 17.4671C1.23957 17.4885 1.18438 17.4995 1.12865 17.4995C1.07292 17.4995 1.01773 17.4885 0.96625 17.4671C0.914769 17.4458 0.868003 17.4145 0.828627 17.3751C0.789207 17.3357 0.757934 17.2889 0.736598 17.2375C0.715261 17.186 0.704278 17.1308 0.704278 17.0751C0.704278 17.0194 0.715261 16.9642 0.736598 16.9128C0.757934 16.8613 0.789207 16.8146 0.828627 16.7752C1.96881 15.635 3.3055 15.2921 4.63483 15.2921C5.27772 15.2921 5.91911 15.3722 6.53561 15.4814C6.60283 15.7769 6.67131 16.0675 6.74345 16.3806C4.79064 15.9873 2.93196 15.8718 1.42867 17.3751ZM3.33897 17.0037C4.29428 16.7102 5.43681 16.8224 6.91155 17.1348C7.22411 18.6095 7.33638 19.7521 7.04266 20.7074L3.33897 17.0037ZM8.79756 15.249C8.52911 14.0898 8.29164 13.0087 8.3021 12.0306L12.0158 15.7443C11.0377 15.7548 9.9566 15.5174 8.79756 15.249ZM12.9189 15.6518L8.39453 11.1275C8.50642 10.5936 8.72744 10.0977 9.10131 9.64508L14.4011 14.9451C13.9487 15.3191 13.453 15.54 12.9189 15.6518ZM14.8992 14.4474L9.59913 9.14741C10.0516 8.77349 10.5474 8.55247 11.0814 8.44058L15.6057 12.965C15.4938 13.4989 15.273 13.9948 14.8991 14.4474H14.8992ZM15.2029 8.84347C15.4714 10.0027 15.7087 11.0837 15.6984 12.0619L11.9847 8.34814C12.9626 8.33769 14.0439 8.57507 15.2029 8.84347ZM15.7596 15.8056C13.8681 17.6971 11.4788 17.4248 9.17092 16.9244C9.12124 16.6768 9.06728 16.4218 8.97386 16.012C11.2962 16.5403 13.4711 16.8942 15.1597 15.2056C18.8782 11.4873 12.5686 5.03521 16.7293 0.874676C16.8947 0.709348 17.1636 0.70916 17.3291 0.874676C17.4945 1.04 17.4945 1.30921 17.3291 1.47454C13.5895 5.21427 19.9428 11.6226 15.7596 15.8056ZM17.089 6.95764C16.7764 5.48291 16.6641 4.34033 16.9578 3.38507L20.6615 7.08875C19.7062 7.38243 18.5637 7.27016 17.089 6.95764Z" fill="#3C7E80"/>
</g>
<defs>
<clipPath id="clip0_50_4907">
<rect width="24" height="24" fill="white"/>
</clipPath>
</defs>
</svg>
