<svg width="45" height="45" viewBox="0 0 45 45" fill="none" xmlns="http://www.w3.org/2000/svg">
<g clip-path="url(#clip0_56_360)">
<path d="M15.0807 28.1799H16.4897V29.5008H15.0807V28.1799ZM16.4897 26.7709H17.8987V28.0918H16.4897V26.7709ZM31.9887 22.5439H33.3977V23.8648H31.9887V22.5439ZM33.3977 21.1349H34.8067V22.4558H33.3977V21.1349ZM24.9437 4.22687H26.3527V5.54781H24.9437V4.22687ZM26.3527 2.81787H27.7617V4.13881H26.3527V2.81787ZM8.03564 9.86288H9.44465V11.1838H8.03564V9.86288ZM9.44465 8.45388H10.8536V9.77482H9.44465V8.45388Z" fill="#3C7E80"/>
<path d="M22.1697 26.0225H23.4907V20.3865C23.4907 19.2454 22.5623 18.317 21.4212 18.317C20.2801 18.317 19.3517 19.2454 19.3517 20.3865V27.4315C19.3517 29.3981 17.7517 30.998 15.7852 30.998C13.8187 30.998 12.2187 29.3981 12.2187 27.4315V26.2961L18.3657 20.1491L17.4317 19.215L11.2846 25.362H10.1492C8.18267 25.362 6.58266 23.7621 6.58266 21.7955C6.58266 19.8289 8.18267 18.229 10.1492 18.229H17.1942C18.3353 18.229 19.2637 17.3006 19.2637 16.1595C19.2637 15.0184 18.3353 14.09 17.1942 14.09H10.1492C8.18267 14.09 6.58266 12.4901 6.58266 10.5235C6.58266 8.55687 8.18267 6.95695 10.1492 6.95695H11.2846L17.4317 13.1041L18.3657 12.17L12.2187 6.02287V4.88748C12.2187 2.92086 13.8187 1.32094 15.7852 1.32094C17.7517 1.32094 19.3517 2.92086 19.3517 4.88748V9.11448H20.6727V4.88748C20.6727 2.1925 18.4802 0 15.7852 0C13.0902 0 10.8977 2.1925 10.8977 4.88748V5.63601H10.1492C7.45421 5.63601 5.26172 7.8285 5.26172 10.5235C5.26172 13.2185 7.45421 15.411 10.1492 15.411H17.1942C17.607 15.411 17.9427 15.7468 17.9427 16.1595C17.9427 16.5722 17.607 16.908 17.1942 16.908H10.1492C7.45421 16.908 5.26172 19.1006 5.26172 21.7955C5.26172 24.4904 7.45421 26.683 10.1492 26.683H10.8977V27.4315C10.8977 30.1265 13.0902 32.319 15.7852 32.319C18.4802 32.319 20.6727 30.1265 20.6727 27.4315V20.3865C20.6727 19.9738 21.0085 19.638 21.4212 19.638C21.834 19.638 22.1697 19.9738 22.1697 20.3865V26.0225Z" fill="#3C7E80"/>
<path d="M23.9287 31.183C24.777 31.8916 25.868 32.319 27.0573 32.319C29.7523 32.319 31.9448 30.1265 31.9448 27.4315V26.683H32.6933C35.3883 26.683 37.5808 24.4905 37.5808 21.7955C37.5808 19.1005 35.3883 16.908 32.6933 16.908H25.6483C25.2355 16.908 24.8998 16.5722 24.8998 16.1595C24.8998 15.7468 25.2355 15.411 25.6483 15.411H32.6933C35.3883 15.411 37.5808 13.2184 37.5808 10.5235C37.5808 7.82859 35.3883 5.63601 32.6933 5.63601H31.9448V4.88748C31.9448 2.1925 29.7523 0 27.0573 0C24.3623 0 22.1698 2.1925 22.1698 4.88748V11.9325C22.1698 12.3451 21.834 12.681 21.4213 12.681C21.0085 12.681 20.6727 12.3451 20.6727 11.9325V10.5237H19.3518V11.9325C19.3518 13.0736 20.2802 14.002 21.4213 14.002C22.5624 14.002 23.4907 13.0736 23.4907 11.9325V4.88748C23.4907 2.92086 25.0907 1.32094 27.0573 1.32094C29.0238 1.32094 30.6238 2.92086 30.6238 4.88748V6.02287L24.4768 12.1699L25.4108 13.104L31.5579 6.95695H32.6933C34.6598 6.95695 36.2598 8.55687 36.2598 10.5235C36.2598 12.4901 34.6598 14.09 32.6933 14.09H25.6483C24.5072 14.09 23.5788 15.0184 23.5788 16.1595C23.5788 17.3006 24.5072 18.229 25.6483 18.229H32.6933C34.6598 18.229 36.2598 19.8289 36.2598 21.7955C36.2598 23.7621 34.6598 25.362 32.6933 25.362H31.5579L25.4108 19.2149L24.4768 20.149L30.6238 26.296V27.4315C30.6238 29.3981 29.0238 30.998 27.0573 30.998C25.0907 30.998 23.4907 29.3981 23.4907 27.4315H22.1698C22.1698 37.1188 30.051 45 39.7383 45V43.6791C32.0703 43.6791 25.6266 38.3391 23.9287 31.183Z" fill="#3C7E80"/>
</g>
<defs>
<clipPath id="clip0_56_360">
<rect width="45" height="45" fill="white"/>
</clipPath>
</defs>
</svg>
