<svg width="24" height="24" viewBox="0 0 24 24" fill="none" xmlns="http://www.w3.org/2000/svg">
<g clip-path="url(#clip0_50_4919)">
<path d="M21.375 22.8752V6.61261L22.125 5.81836V7.87523H22.875V4.50023H19.5V5.25023H21.63L16.1171 11.0871L14.25 9.21998L9.60262 13.8674L9.132 13.4492L10.95 11.0252C11.1435 10.7672 11.25 10.4477 11.25 10.1252C11.25 9.29798 10.5773 8.62523 9.75 8.62523C9.25163 8.62523 8.9865 8.92786 8.811 9.12811C8.6475 9.31486 8.58262 9.37523 8.43637 9.37523C8.29012 9.37523 8.22525 9.31486 8.06175 9.12811C7.93687 8.98561 7.76475 8.79323 7.49775 8.69273V7.87523H7.5V7.50023C7.5 7.48561 7.49812 7.47136 7.49775 7.45673V7.12523H8.625C10.0725 7.12523 11.25 5.94773 11.25 4.50023V4.12523H9.375C9.02489 4.12518 8.67833 4.19542 8.35587 4.33179C8.0334 4.46816 7.7416 4.66788 7.49775 4.91911V4.00336C7.83384 3.84982 8.11875 3.60298 8.31859 3.29218C8.51843 2.98139 8.62478 2.61973 8.625 2.25023C8.62549 1.84382 8.49784 1.44759 8.26018 1.11791C8.02253 0.788223 7.68698 0.54186 7.30125 0.413855L7.125 0.35498L6.94875 0.413855C6.56302 0.54186 6.22747 0.788223 5.98982 1.11791C5.75216 1.44759 5.62451 1.84382 5.625 2.25023C5.62523 2.61891 5.7311 2.9798 5.93008 3.29017C6.12906 3.60054 6.41282 3.84739 6.74775 4.00148V5.38036C6.43205 4.98857 6.0326 4.67248 5.57875 4.45529C5.12489 4.23809 4.62815 4.12531 4.125 4.12523H2.25V4.50023C2.25 6.36098 3.76425 7.87523 5.625 7.87523H6.74775V8.69311C6.48075 8.79361 6.309 8.98598 6.1845 9.12848C6.02175 9.31486 5.9565 9.37523 5.81137 9.37523C5.66625 9.37523 5.601 9.31486 5.43788 9.12848C5.26275 8.92823 4.998 8.62523 4.5 8.62523C3.67275 8.62523 3 9.29798 3 10.1252C3 10.4477 3.1065 10.7676 3.3 11.0252L5.118 13.4492L3.56437 14.8304C3.03331 15.3027 2.60822 15.882 2.31705 16.5303C2.02588 17.1787 1.87523 17.8813 1.875 18.592C1.875 20.4029 2.83913 21.9884 4.278 22.8752H1.125V3.37523H0.375V23.6252H23.625V22.8752H21.375ZM9.375 4.87523H10.4621C10.3751 5.29839 10.1449 5.67861 9.81024 5.95184C9.4756 6.22507 9.05701 6.3746 8.625 6.37523H7.53788C7.62483 5.95204 7.85504 5.57177 8.18969 5.29853C8.52434 5.02529 8.94297 4.87579 9.375 4.87523ZM5.625 7.12523C4.30463 7.12523 3.20925 6.14573 3.02663 4.87523H4.125C5.44537 4.87523 6.54075 5.85473 6.72338 7.12523H5.625ZM6.375 2.25023C6.375 1.76048 6.67387 1.32548 7.125 1.14736C7.57613 1.32548 7.875 1.76048 7.875 2.25023C7.875 2.73998 7.57613 3.17498 7.125 3.35311C6.90368 3.26587 6.71376 3.11401 6.57998 2.91729C6.4462 2.72057 6.37478 2.48812 6.375 2.25023ZM3.9 10.5749C3.81683 10.4634 3.76627 10.3309 3.75397 10.1924C3.74167 10.0538 3.7681 9.91456 3.83033 9.79015C3.89255 9.66574 3.98812 9.56106 4.10637 9.4878C4.22462 9.41453 4.36089 9.37556 4.5 9.37523C4.64512 9.37523 4.71037 9.43561 4.87313 9.62198C5.04825 9.82223 5.313 10.1252 5.81137 10.1252C6.30937 10.1252 6.57412 9.82223 6.74925 9.62198C6.91237 9.43561 6.97725 9.37523 7.12275 9.37523C7.269 9.37523 7.33388 9.43561 7.49738 9.62236C7.67287 9.82261 7.938 10.1252 8.43637 10.1252C8.93475 10.1252 9.19987 9.82261 9.37537 9.62236C9.53887 9.43561 9.60375 9.37523 9.75 9.37523C9.88917 9.37551 10.0255 9.41446 10.1438 9.48775C10.2621 9.56103 10.3578 9.66576 10.42 9.79023C10.4822 9.91471 10.5086 10.054 10.4963 10.1927C10.4839 10.3313 10.4333 10.4637 10.35 10.5752L8.4375 13.1252H5.8125L3.9 10.5749ZM6.90825 22.8752C4.5465 22.8752 2.625 20.9537 2.625 18.592C2.6252 17.9871 2.75342 17.3892 3.00122 16.8374C3.24901 16.2856 3.61079 15.7926 4.06275 15.3906L5.7675 13.8752H8.48212L10.1869 15.391C10.639 15.7928 11.0009 16.2857 11.2488 16.8375C11.4966 17.3892 11.6249 17.9871 11.625 18.592C11.625 20.9537 9.7035 22.8752 7.34175 22.8752H6.90825ZM13.125 22.8752H9.972C11.4109 21.9884 12.375 20.4029 12.375 18.592C12.375 17.1554 11.7593 15.7844 10.6856 14.83L10.164 14.3665L13.125 11.4055V22.8752ZM14.625 22.8752H13.875V10.6555L14.25 10.2805L14.625 10.6555V22.8752ZM16.125 22.8752H15.375V11.4055L16.125 12.1555V22.8752ZM17.625 22.8752H16.875V11.3774L17.625 10.5831V22.8752ZM19.125 22.8752H18.375V9.78886L19.125 8.99461V22.8752ZM20.625 22.8752H19.875V8.20073L20.625 7.40648V22.8752Z" fill="#3C7E80"/>
<path d="M5.649 21.6263L7.8975 14.874L8.60925 15.111L6.36075 21.8633L5.649 21.6263ZM9 18C8.37975 18 7.875 18.5048 7.875 19.125C7.875 19.7453 8.37975 20.25 9 20.25C9.62025 20.25 10.125 19.7453 10.125 19.125C10.125 18.5048 9.62025 18 9 18ZM9 19.5C8.79338 19.5 8.625 19.3316 8.625 19.125C8.625 18.9184 8.79338 18.75 9 18.75C9.20662 18.75 9.375 18.9184 9.375 19.125C9.375 19.3316 9.20662 19.5 9 19.5ZM6.375 17.625C6.375 17.0048 5.87025 16.5 5.25 16.5C4.62975 16.5 4.125 17.0048 4.125 17.625C4.125 18.2453 4.62975 18.75 5.25 18.75C5.87025 18.75 6.375 18.2453 6.375 17.625ZM5.25 18C5.04338 18 4.875 17.8316 4.875 17.625C4.875 17.4184 5.04338 17.25 5.25 17.25C5.45662 17.25 5.625 17.4184 5.625 17.625C5.625 17.8316 5.45662 18 5.25 18Z" fill="#3C7E80"/>
</g>
<defs>
<clipPath id="clip0_50_4919">
<rect width="24" height="24" fill="white"/>
</clipPath>
</defs>
</svg>
