<svg width="24" height="24" viewBox="0 0 24 24" fill="none" xmlns="http://www.w3.org/2000/svg">
<g clip-path="url(#clip0_50_4926)">
<path d="M8.20055 13.5072C8.4354 13.2003 8.56243 12.8245 8.56191 12.438C8.56191 11.4641 7.77239 10.6746 6.79842 10.6746C6.66389 10.6746 6.53306 10.6901 6.40716 10.7187C6.51964 10.5006 6.57821 10.2587 6.57797 10.0132C6.57797 9.16106 5.88713 8.47021 5.03494 8.47021C4.18275 8.47021 3.49191 9.16106 3.49191 10.0132C3.49166 10.2532 3.54763 10.4898 3.65531 10.7042C3.54948 10.6846 3.44209 10.6747 3.33445 10.6746C2.36048 10.6746 1.57097 11.4641 1.57097 12.438C1.57046 12.8245 1.69747 13.2003 1.93228 13.5072C1.07231 13.8701 0.46875 14.721 0.46875 15.7131C0.46875 17.0348 1.54027 18.1064 2.86205 18.1064C3.85266 18.1064 4.70264 17.5045 5.06639 16.6466C5.43019 17.5045 6.28017 18.1064 7.27073 18.1064C8.59252 18.1064 9.66403 17.0348 9.66403 15.7131C9.66403 14.721 9.06047 13.8701 8.20055 13.5072ZM21.6524 16.9422H12.7022C12.1844 16.9422 11.7647 16.5224 11.7647 16.0047V15.0557C11.7647 14.5379 12.1844 14.1182 12.7022 14.1182H21.6525C22.1702 14.1182 22.59 14.5379 22.59 15.0557V16.0047C22.5899 16.5224 22.1702 16.9422 21.6524 16.9422Z" stroke="#3C7E80" stroke-miterlimit="10" stroke-linecap="round" stroke-linejoin="round"/>
<path d="M21.6524 14.1179H12.7021C12.1844 14.1179 11.7646 13.6982 11.7646 13.1804V12.2314C11.7646 11.7137 12.1844 11.2939 12.7021 11.2939H21.6524C22.1702 11.2939 22.5899 11.7137 22.5899 12.2314V13.1804C22.5899 13.6982 22.1701 14.1179 21.6524 14.1179ZM12.7059 16.9419H14.5886V18.8246H12.7059V16.9419ZM19.7659 16.9419H21.6485V18.8246H19.7659V16.9419Z" stroke="#3C7E80" stroke-miterlimit="10" stroke-linecap="round" stroke-linejoin="round"/>
<path d="M22.5899 20.7073H11.7647M22.5899 20.7073C23.1098 20.7073 23.5313 20.2859 23.5313 19.766C23.5313 19.2461 23.1098 18.8246 22.59 18.8246H11.7647C11.2448 18.8246 10.8233 19.2461 10.8233 19.766C10.8233 20.2859 11.2448 20.7073 11.7647 20.7073M22.5899 20.7073H20.7073V23.5313H22.5899V20.7073ZM11.7647 20.7073H13.6473V23.5313H11.7647V20.7073ZM5.06639 13.0864V23.5313M5.0662 15.2077L3.29273 14.4984M5.06639 15.2077L6.83986 14.4984M0.46875 23.5313H23.5312" stroke="#3C7E80" stroke-miterlimit="10" stroke-linecap="round" stroke-linejoin="round"/>
<path d="M20.7641 5.70344C21.3155 5.15202 21.3154 4.25801 20.764 3.70661C20.2126 3.15521 19.3186 3.15523 18.7672 3.70665C18.2158 4.25807 18.2158 5.15207 18.7672 5.70347C19.3186 6.25487 20.2127 6.25486 20.7641 5.70344Z" stroke="#3C7E80" stroke-miterlimit="10" stroke-linecap="round" stroke-linejoin="round"/>
<path d="M19.7659 0.46875V1.41009M16.0974 2.58675L16.9126 3.05742M16.0974 6.8227L16.9126 6.35203M19.7659 8.9407V7.99936M23.4343 6.8227L22.6191 6.35203M23.4343 2.58675L22.6191 3.05742" stroke="#3C7E80" stroke-miterlimit="10" stroke-linecap="round" stroke-linejoin="round"/>
</g>
<defs>
<clipPath id="clip0_50_4926">
<rect width="24" height="24" fill="white"/>
</clipPath>
</defs>
</svg>
