<svg width="45" height="45" viewBox="0 0 45 45" fill="none" xmlns="http://www.w3.org/2000/svg">
<path d="M41.5636 4.91682C40.9541 3.00005 40.1281 1.62758 40.0931 1.5699C39.9576 1.3467 39.6787 1.23055 39.4261 1.28843C39.3607 1.30339 37.8008 1.66746 36.0015 2.56618C33.5723 3.77894 31.8754 5.39802 31.0937 7.24768C30.443 8.78792 30.3495 10.671 30.8112 12.7512C29.8279 11.653 28.7216 10.6924 27.5158 9.88354C27.1476 9.15614 26.174 7.36528 24.652 5.4936C24.1507 4.8774 23.1864 5.65068 23.6929 6.27302C24.7184 7.53449 25.4905 8.77507 25.9732 9.62739L20.3436 8.52992L14.995 1.23444C15.5144 1.24162 16.0356 1.29179 16.5541 1.39357C18.1982 1.71538 19.8222 2.5528 21.3818 3.88197C21.9929 4.40286 22.7865 3.45482 22.1834 2.94106C20.4606 1.47287 18.6465 0.543817 16.7915 0.180477C13.9599 -0.37363 10.6573 0.353841 7.23986 2.28498C4.69278 3.72436 2.98946 5.30534 2.91834 5.37178C2.69046 5.5847 2.6542 5.97151 2.84497 6.22022C3.0948 6.73266 4.04132 8.5812 5.61682 10.5713C6.54561 11.7447 7.52515 12.7489 8.53838 13.5742C8.24898 13.8163 7.96906 14.0695 7.69924 14.3333C6.25109 15.7498 5.14228 17.4206 4.41441 19.2473C3.77092 20.8613 3.42485 22.5975 3.40554 24.3871C3.37363 27.3135 4.22154 30.1358 5.85815 32.5496C7.45693 34.9072 9.69194 36.7174 12.3214 37.7841C13.0574 38.0821 13.5227 36.9375 12.7863 36.6388C11.8407 36.2549 10.9435 35.7613 10.113 35.1683C10.2186 34.5828 10.4634 32.4754 9.06368 30.2939C8.8677 29.9888 9.45352 28.7905 9.80321 28.0746C10.1642 27.3369 10.5368 26.5743 10.7109 25.8561C10.8957 25.0931 10.6877 24.4527 10.1096 24.0034C9.68528 23.6736 9.12986 23.5029 8.64035 23.3522C8.32236 23.2544 7.96186 23.1437 7.83312 23.0363C7.56793 22.8141 7.13478 21.9929 6.78667 21.3335C6.40039 20.6019 6.03277 19.9057 5.6573 19.477C6.50217 17.4706 7.85916 15.6952 9.55859 14.3369C11.111 15.3944 12.8828 16.1241 14.7661 16.272C12.5821 17.9642 11.8755 20.1254 12.8854 22.2013C14.0647 24.6253 16.492 24.238 18.6337 23.8968C19.0041 23.8376 19.3876 23.7766 19.7547 23.7307C19.8925 23.7135 19.934 23.7511 19.9618 23.7755C20.4306 24.1927 20.4167 26.1849 20.4067 27.6397C20.3931 29.652 20.3802 31.5528 21.1298 32.5288C21.5121 33.0262 22.0506 33.2806 22.6817 33.2806C23.0599 33.2806 23.4709 33.1895 23.902 33.0046C25.7659 32.2064 27.7035 29.804 27.4079 27.9032C27.1497 26.2413 26.9787 25.1434 27.3817 24.2584C27.7543 23.4393 28.655 22.6809 30.4288 21.7133C30.6452 22.6891 30.7487 23.6866 30.7373 24.686C30.6995 28.1709 29.3064 31.4326 26.8152 33.8697C24.031 36.5935 20.1178 37.9387 16.247 37.512C15.4583 37.4265 15.322 38.6537 16.1118 38.7407C20.3488 39.2074 24.6327 37.7344 27.6793 34.7535C30.407 32.0851 31.9318 28.5147 31.9732 24.6991C32.0284 19.6402 29.4326 15.1583 25.4812 12.5764C26.2976 11.9942 26.9058 11.4908 27.2431 11.1986C28.6838 12.2322 29.9617 13.5055 31.0249 14.9889C33.5772 18.5508 34.5894 22.8929 33.8756 27.2162C32.4015 36.1406 23.9422 42.2027 15.0162 40.728C10.6926 40.014 6.90618 37.6596 4.35397 34.0976C1.80142 30.5361 0.78925 26.1934 1.50327 21.8703C1.63148 21.0925 0.412792 20.8883 0.284054 21.669C-0.484089 26.318 0.604877 30.9877 3.34898 34.8178C6.09354 38.6475 10.1658 41.1797 14.8148 41.9478C15.7774 42.107 16.7514 42.1872 17.7271 42.1875C21.3809 42.1875 24.9353 41.0531 27.9642 38.8826C31.7949 36.138 34.3274 32.0665 35.0949 27.4175C35.6575 24.0108 35.2221 20.5932 33.8698 17.5027C34.494 17.3186 35.5561 16.9613 36.7194 16.3804C39.1481 15.1676 40.8452 13.5485 41.6267 11.6989C42.409 9.84881 42.387 7.50357 41.5636 4.91682ZM5.69342 21.9103C6.15333 22.7821 6.58819 23.6061 7.04013 23.9841C7.36016 24.2517 7.80563 24.3886 8.27708 24.5336C9.48503 24.9049 9.6253 25.0872 9.50948 25.5648C9.3673 26.1522 9.02432 26.8535 8.69296 27.5316C8.0546 28.8376 7.45185 30.0705 8.02323 30.9614C8.65212 31.938 8.97754 33.0791 8.95841 34.2405C5.27735 30.9212 3.77844 25.6784 5.14966 20.9132C5.3314 21.2248 5.52236 21.5869 5.69342 21.9103ZM35.5946 9.76509L33.8383 5.50876C34.6929 4.70944 35.6845 4.108 36.5291 3.68442C37.2485 3.32338 37.9329 3.05358 38.4819 2.86222L35.5946 9.76509ZM39.6213 3.34138C39.8667 3.86872 40.1513 4.5488 40.3943 5.3174C40.6608 6.16096 40.9054 7.20635 40.9541 8.2969L36.8381 9.99495L39.6213 3.34138ZM32.2321 7.72888C32.4143 7.29778 32.65 6.89818 32.9221 6.52917L34.9215 11.374L33.1274 15.6643C32.8752 15.1295 32.5784 14.427 32.3265 13.6291C31.8211 12.0314 31.3947 9.71025 32.2321 7.72888ZM36.1915 15.2621C35.4991 15.6097 34.8384 15.8729 34.3003 16.0626L36.1622 11.6113L40.9016 9.65567C40.8328 10.1866 40.7018 10.713 40.4883 11.2177C39.6512 13.199 37.6896 14.5109 36.1915 15.2621ZM13.9063 14.9103C13.6889 14.8674 13.4733 14.8159 13.26 14.7559L20.1001 9.74195L25.7322 10.8396C23.6805 12.4562 18.6875 15.8471 13.9063 14.9103ZM7.65521 11.0436C6.19235 9.46694 5.1202 7.78115 4.50452 6.70175L11.6718 8.09921L7.65521 11.0436ZM8.92103 2.79788L11.9198 6.88816L4.7061 5.482C5.61432 4.76488 7.11343 3.68837 8.92103 2.79788ZM13.7078 7.2368L10.0723 2.27779C11.1607 1.83054 12.3289 1.47853 13.5265 1.32198L18.5559 8.18154L13.7078 7.2368ZM13.3231 8.42102L18.449 9.42008L11.8704 14.2422C10.6298 13.6692 9.51324 12.8455 8.53633 11.9298L13.3231 8.42102ZM30.093 20.4897C27.865 21.6767 26.774 22.6091 26.2564 23.7464C25.7005 24.9678 25.9042 26.2786 26.1861 28.0929C26.3527 29.1628 25.0812 31.155 23.4153 31.8685C22.7988 32.1325 22.3598 32.1013 22.1098 31.7756C21.6187 31.1365 21.6321 29.2021 21.6427 27.6483C21.6574 25.4981 21.6702 23.6414 20.7832 22.8522C20.4641 22.5684 20.056 22.4484 19.6026 22.5041C19.214 22.5525 18.8198 22.6153 18.439 22.6761C16.1671 23.0381 14.7375 23.183 13.997 21.6605C12.7971 19.1945 15.226 17.3679 16.326 16.6971C16.55 16.5606 16.7578 16.3997 16.9509 16.2205C19.6095 15.9027 22.1216 14.762 24.3603 13.3332C27.0443 14.9369 29.1048 17.4747 30.093 20.4897Z" fill="#3C7E80"/>
</svg>
