<svg width="24" height="24" viewBox="0 0 24 24" fill="none" xmlns="http://www.w3.org/2000/svg">
<g clip-path="url(#clip0_50_4982)">
<path d="M15.7197 18.2576C16.7593 17.6167 16.775 16.7311 16.7864 16.0845C16.7936 15.6712 16.8063 15.4097 16.9677 15.252C17.1475 15.0761 17.5467 14.9889 18.1562 14.9923C18.1921 15.2779 18.2102 15.5655 18.2101 15.8533V15.8681C18.2101 15.9112 18.2185 15.9539 18.2349 15.9937C18.2513 16.0336 18.2755 16.0698 18.3059 16.1003C18.3363 16.1308 18.3724 16.155 18.4122 16.1716C18.452 16.1881 18.4947 16.1967 18.5378 16.1968H18.5383C18.6252 16.1968 18.7086 16.1623 18.7701 16.1008C18.8316 16.0394 18.8663 15.9561 18.8664 15.8692V15.8538C18.8664 11.7119 15.4967 8.3422 11.3548 8.3422C7.21294 8.3422 3.84319 11.7119 3.84319 15.8538C3.84319 19.9957 7.21289 23.3654 11.3548 23.3654C13.0697 23.3654 14.6845 22.8026 16.0245 21.7378C16.0926 21.6836 16.1365 21.6046 16.1463 21.5182C16.1562 21.4317 16.1314 21.3449 16.0772 21.2767C16.0464 21.2379 16.0071 21.2066 15.9623 21.1851C15.9175 21.1637 15.8685 21.1527 15.8189 21.153C15.7839 21.0797 15.8064 21.0208 15.8534 20.8995C16.1264 20.1949 15.9086 19.5653 15.7336 19.0594C15.535 18.4851 15.533 18.3727 15.7197 18.2576ZM11.3548 8.99845C12.0345 8.998 12.7105 9.09897 13.3605 9.29803C13.6155 10.1738 13.641 10.804 13.436 11.1723C13.2505 11.5053 12.8746 11.6019 12.5111 11.6954C12.4217 11.7183 12.3373 11.74 12.2555 11.7653C12.0426 11.8312 11.784 11.9408 11.674 12.2055C11.5542 12.4942 11.6824 12.7981 11.7893 13.0016C11.9492 13.3061 12.3519 13.59 12.7783 13.8906C12.9891 14.0393 13.207 14.1929 13.3685 14.3329C13.4636 14.4154 13.4856 14.4731 13.4865 14.483C13.4806 14.4973 13.4177 14.5629 13.2377 14.6012C13.1897 14.6112 13.0022 14.6203 12.8369 14.6284C12.3633 14.6514 11.6477 14.6864 11.1062 14.8363C10.9172 14.8886 10.3423 15.0479 10.2314 15.5295C10.152 15.8743 10.3402 16.2418 10.8066 16.653C11.2471 17.0414 11.8837 17.7795 11.8316 18.2207C11.8223 18.2992 11.7859 18.4163 11.5774 18.5268C10.9013 18.8853 10.4864 18.4999 10.1194 18.0746C9.96544 17.8961 9.77878 17.5344 9.58116 17.1515C9.17728 16.3689 8.71955 15.482 8.09175 15.2372C8.03672 15.2158 7.97742 15.2002 7.91461 15.1838C7.55423 15.0893 6.88336 14.9135 6.79692 13.1459C6.78023 12.8051 6.37622 11.9686 6.04791 11.5192C7.30608 9.98161 9.21769 8.99845 11.3548 8.99845ZM8.54461 21.9829C8.62552 22.024 8.68481 22.0547 8.709 22.1778C7.99437 21.8773 7.33573 21.4581 6.76097 20.9378C7.17417 20.8267 7.78087 20.6681 8.02406 20.8629C8.16169 20.9731 8.18067 21.2277 8.17237 21.4218C8.15677 21.7861 8.41875 21.919 8.54461 21.9829ZM15.3753 17.699C14.7104 18.1088 14.9339 18.7549 15.1135 19.274C15.2679 19.7205 15.4276 20.1821 15.2415 20.6625C15.1439 20.9144 15.086 21.1867 15.258 21.4905C14.1103 22.2892 12.77 22.7092 11.3548 22.7092C10.6842 22.7095 10.0173 22.6112 9.37537 22.4174C9.39652 21.7721 9.13228 21.5453 8.84156 21.3977C8.83763 21.3957 8.83371 21.3937 8.8298 21.3917C8.83894 20.9183 8.706 20.5683 8.43427 20.3506C7.92708 19.9443 7.14145 20.1558 6.5678 20.3102C6.4568 20.3401 6.31556 20.3781 6.2243 20.3953C5.15175 19.185 4.49939 17.5943 4.49939 15.8538C4.49939 14.4585 4.91878 13.1595 5.63761 12.0755C5.85792 12.4356 6.13177 13.0091 6.14142 13.178C6.25144 15.4263 7.30036 15.7012 7.74825 15.8186C7.79025 15.8296 7.8337 15.841 7.85339 15.8487C8.25009 16.0034 8.68237 16.8409 8.99798 17.4525C9.22331 17.889 9.41789 18.2661 9.62255 18.5033C9.84173 18.7574 10.3335 19.3274 11.0708 19.3273C11.3154 19.3273 11.5872 19.2645 11.8848 19.1067C12.3283 18.8715 12.4551 18.537 12.4834 18.2977C12.5894 17.4001 11.4668 16.3601 11.2406 16.1608C10.8579 15.8234 10.8707 15.678 10.871 15.6767C10.8759 15.6555 10.9599 15.5579 11.2814 15.4688C11.7526 15.3383 12.4244 15.3056 12.8689 15.2839C13.1365 15.2708 13.2806 15.2631 13.3743 15.2432C13.7737 15.1582 14.046 14.9413 14.1217 14.648C14.1634 14.486 14.1769 14.1653 13.7984 13.8371C13.6121 13.6756 13.3804 13.5123 13.1565 13.3544C12.8447 13.1346 12.4567 12.861 12.3703 12.6965C12.2977 12.5583 12.2848 12.4875 12.2828 12.4614C12.3003 12.4491 12.3444 12.4248 12.4494 12.3923C12.516 12.3717 12.593 12.3519 12.6745 12.3309C13.1018 12.2211 13.6868 12.0707 14.0093 11.4916C14.2614 11.039 14.2949 10.4089 14.1097 9.57708C16.0731 10.4422 17.5567 12.2019 18.0408 14.337C17.2921 14.3462 16.8108 14.4876 16.509 14.7828C16.1468 15.1369 16.1384 15.6128 16.1302 16.073C16.1196 16.6764 16.1095 17.2464 15.3753 17.699ZM19.6488 8.73173C21.338 10.6973 22.275 13.2082 22.2871 15.8017C22.2873 15.8447 22.279 15.8875 22.2627 15.9273C22.2464 15.9672 22.2224 16.0035 22.1921 16.0341C22.1618 16.0647 22.1257 16.0891 22.086 16.1058C22.0462 16.1224 22.0036 16.1311 21.9605 16.1313H21.959C21.8722 16.1313 21.789 16.097 21.7275 16.0358C21.666 15.9746 21.6313 15.8915 21.6308 15.8048C21.6195 13.3669 20.7388 11.0069 19.1511 9.15942C19.1227 9.12679 19.1009 9.08886 19.0872 9.0478C19.0735 9.00674 19.068 8.96337 19.0711 8.92019C19.0742 8.87701 19.0858 8.83487 19.1053 8.7962C19.1248 8.75752 19.1517 8.72309 19.1845 8.69487C19.2174 8.66666 19.2555 8.64522 19.2966 8.63179C19.3378 8.61837 19.3812 8.61322 19.4244 8.61664C19.4675 8.62007 19.5096 8.632 19.5481 8.65176C19.5866 8.67151 19.6209 8.69869 19.6488 8.73173ZM3.99 23.0211C4.03499 23.0673 4.06536 23.1258 4.0773 23.1892C4.08924 23.2526 4.08223 23.3181 4.05714 23.3776C4.03205 23.437 3.98999 23.4877 3.93623 23.5234C3.88247 23.559 3.81939 23.5781 3.75487 23.5781C3.71102 23.5781 3.66761 23.5694 3.62721 23.5523C3.58681 23.5353 3.55025 23.5103 3.5197 23.4788C1.52208 21.4265 0.421875 18.7185 0.421875 15.8538C0.421875 14.3009 0.740953 12.8004 1.37025 11.394C1.97803 10.0356 2.84302 8.83289 3.94116 7.81931C4.00539 7.76204 4.08955 7.7323 4.17551 7.73648C4.26147 7.74067 4.34234 7.77845 4.40071 7.84169C4.45907 7.90494 4.49026 7.98857 4.48756 8.07459C4.48485 8.16061 4.44846 8.24212 4.38623 8.30156C2.28389 10.242 1.07812 12.9948 1.07812 15.8538C1.07812 18.5465 2.11223 21.0919 3.99 23.0211ZM7.30369 6.04556C7.28847 6.00525 7.28134 5.96233 7.28271 5.91926C7.28408 5.8762 7.29392 5.83382 7.31166 5.79455C7.32941 5.75529 7.35472 5.7199 7.38614 5.69041C7.41756 5.66093 7.45448 5.63792 7.4948 5.6227C8.72855 5.157 10.0272 4.92084 11.3548 4.92084C11.5391 4.92084 11.7267 4.92558 11.9123 4.93486C12.0933 4.94391 12.2327 5.09798 12.2236 5.27897C12.2146 5.45995 12.0604 5.59983 11.8795 5.59031C10.4471 5.51873 9.04711 5.7382 7.72659 6.23667C7.68959 6.25071 7.65034 6.25791 7.61077 6.25791C7.54407 6.2579 7.47896 6.23758 7.4241 6.19964C7.36924 6.16171 7.32724 6.10796 7.30369 6.04556ZM20.0796 16.581C18.1505 16.581 16.581 18.1505 16.581 20.0796C16.581 22.0087 18.1505 23.5781 20.0796 23.5781C22.0087 23.5781 23.5781 22.0087 23.5781 20.0796C23.5781 18.1504 22.0087 16.581 20.0796 16.581ZM20.0796 22.9219C18.5123 22.9219 17.2372 21.6468 17.2372 20.0796C17.2372 18.5123 18.5123 17.2372 20.0796 17.2372C21.6468 17.2372 22.9219 18.5123 22.9219 20.0796C22.9219 21.6468 21.6468 22.9219 20.0796 22.9219ZM20.886 18.8642V18.3552C20.886 17.9106 20.5242 17.5488 20.0796 17.5488C19.6349 17.5488 19.2731 17.9106 19.2731 18.3552V21.0483C19.1539 21.2156 19.0901 21.4159 19.0905 21.6213C19.0905 22.1667 19.5342 22.6104 20.0796 22.6104C20.625 22.6104 21.0687 22.1667 21.0687 21.6213C21.0691 21.4159 21.0052 21.2156 20.886 21.0483V18.8642ZM20.0796 18.205C20.161 18.205 20.2297 18.2738 20.2297 18.3552V18.536H19.9294V18.3552C19.9294 18.2738 19.9981 18.205 20.0796 18.205ZM20.0796 21.9541C19.896 21.9541 19.7467 21.8048 19.7467 21.6212C19.7467 21.5352 19.7794 21.4537 19.8387 21.3915C19.8969 21.3304 19.9294 21.2493 19.9294 21.165V19.1923H20.2297V21.165C20.2297 21.2494 20.2622 21.3305 20.3205 21.3915C20.3797 21.4533 20.4126 21.5357 20.4125 21.6212C20.4125 21.8048 20.2631 21.9541 20.0796 21.9541ZM5.81236 3.32714H6.56044C6.64746 3.32714 6.73092 3.36171 6.79246 3.42325C6.85399 3.48478 6.88856 3.56824 6.88856 3.65527C6.88856 3.74229 6.85399 3.82575 6.79246 3.88729C6.73092 3.94882 6.64746 3.98339 6.56044 3.98339H5.81236C5.72534 3.98339 5.64188 3.94882 5.58034 3.88729C5.5188 3.82575 5.48423 3.74229 5.48423 3.65527C5.48423 3.56824 5.5188 3.48478 5.58034 3.42325C5.64188 3.36171 5.72534 3.32714 5.81236 3.32714ZM5.41256 4.94845L5.94155 5.47744C6.00309 5.53898 6.03766 5.62244 6.03766 5.70947C6.03766 5.7965 6.00309 5.87996 5.94155 5.9415C5.88001 6.00304 5.79654 6.03761 5.70952 6.03761C5.62249 6.03761 5.53902 6.00304 5.47748 5.9415L4.9485 5.41252C4.88696 5.35098 4.85239 5.26751 4.85239 5.18048C4.85239 5.13739 4.86088 5.09472 4.87737 5.05491C4.89386 5.0151 4.91803 4.97892 4.9485 4.94845C4.97897 4.91798 5.01514 4.89381 5.05496 4.87732C5.09477 4.86083 5.13744 4.85234 5.18053 4.85234C5.26756 4.85234 5.35102 4.88691 5.41256 4.94845ZM4.9485 2.36194C4.91803 2.33147 4.89385 2.29529 4.87736 2.25548C4.86087 2.21567 4.85238 2.173 4.85238 2.12991C4.85238 2.08681 4.86087 2.04414 4.87736 2.00433C4.89385 1.96452 4.91803 1.92834 4.9485 1.89787L5.47748 1.36889C5.53902 1.30736 5.62248 1.27279 5.70951 1.2728C5.79653 1.2728 5.87999 1.30738 5.94152 1.36891C6.00306 1.43045 6.03762 1.51391 6.03762 1.60094C6.03761 1.68796 6.00304 1.77142 5.9415 1.83295L5.41252 2.36194C5.34844 2.42597 5.26448 2.45803 5.18048 2.45803C5.09648 2.45803 5.01258 2.42597 4.9485 2.36194ZM2.36194 4.94845C2.39241 4.97892 2.41658 5.0151 2.43307 5.05491C2.44957 5.09472 2.45805 5.13739 2.45805 5.18048C2.45805 5.22358 2.44957 5.26625 2.43307 5.30606C2.41658 5.34587 2.39241 5.38205 2.36194 5.41252L1.83295 5.9415C1.76888 6.00553 1.68492 6.03759 1.60092 6.03759C1.51692 6.03759 1.43297 6.00553 1.36889 5.9415C1.33842 5.91103 1.31425 5.87486 1.29775 5.83504C1.28126 5.79523 1.27277 5.75256 1.27277 5.70947C1.27277 5.66638 1.28126 5.62371 1.29775 5.58389C1.31425 5.54408 1.33842 5.50791 1.36889 5.47744L1.89787 4.94845C1.95944 4.88696 2.04289 4.85241 2.12991 4.85241C2.21692 4.85241 2.30038 4.88696 2.36194 4.94845ZM1.36889 1.83295C1.33842 1.80249 1.31425 1.76631 1.29776 1.72651C1.28126 1.6867 1.27278 1.64403 1.27277 1.60094C1.27277 1.51391 1.30733 1.43045 1.36887 1.36891C1.4304 1.30738 1.51386 1.2728 1.60088 1.2728C1.64397 1.27279 1.68664 1.28128 1.72645 1.29777C1.76626 1.31426 1.80244 1.33842 1.83291 1.36889L2.36189 1.89787C2.42343 1.95941 2.458 2.04288 2.458 2.12991C2.458 2.21693 2.42343 2.3004 2.36189 2.36194C2.30035 2.42348 2.21689 2.45805 2.12986 2.45805C2.04283 2.45805 1.95937 2.42348 1.89783 2.36194L1.36889 1.83295ZM3.32709 1.49808V0.75C3.32709 0.662976 3.36166 0.579516 3.4232 0.517981C3.48473 0.456445 3.56819 0.421875 3.65522 0.421875C3.74224 0.421875 3.8257 0.456445 3.88724 0.517981C3.94877 0.579516 3.98334 0.662976 3.98334 0.75V1.49808C3.98334 1.5851 3.94877 1.66856 3.88724 1.7301C3.8257 1.79163 3.74224 1.8262 3.65522 1.8262C3.56819 1.8262 3.48473 1.79163 3.4232 1.7301C3.36166 1.66856 3.32709 1.5851 3.32709 1.49808ZM0.421875 3.65527C0.421875 3.56824 0.456445 3.48478 0.517981 3.42325C0.579516 3.36171 0.662976 3.32714 0.75 3.32714H1.49808C1.5851 3.32714 1.66856 3.36171 1.7301 3.42325C1.79163 3.48478 1.8262 3.56824 1.8262 3.65527C1.8262 3.74229 1.79163 3.82575 1.7301 3.88729C1.66856 3.94882 1.5851 3.98339 1.49808 3.98339H0.75C0.662976 3.98339 0.579516 3.94882 0.517981 3.88729C0.456445 3.82575 0.421875 3.74229 0.421875 3.65527ZM3.65522 5.48423C3.74224 5.48423 3.8257 5.5188 3.88724 5.58034C3.94877 5.64188 3.98334 5.72534 3.98334 5.81236V6.56044C3.98334 6.64746 3.94877 6.73092 3.88724 6.79246C3.8257 6.85399 3.74224 6.88856 3.65522 6.88856C3.56819 6.88856 3.48473 6.85399 3.4232 6.79246C3.36166 6.73092 3.32709 6.64746 3.32709 6.56044V5.81236C3.32709 5.72534 3.36166 5.64188 3.4232 5.58034C3.48473 5.5188 3.56819 5.48423 3.65522 5.48423ZM3.65522 5.25516C4.53745 5.25516 5.2552 4.53741 5.2552 3.65517C5.2552 2.77294 4.53745 2.05519 3.65522 2.05519C2.77298 2.05519 2.05523 2.77294 2.05523 3.65522C2.05523 4.5375 2.77298 5.25516 3.65522 5.25516ZM3.65522 2.71144C4.17562 2.71144 4.59895 3.13481 4.59895 3.65522C4.59895 4.17562 4.17562 4.59891 3.65522 4.59891C3.13481 4.59891 2.71148 4.17558 2.71148 3.65517C2.71148 3.13477 3.13481 2.71144 3.65522 2.71144ZM15.504 7.77375H21.141C22.4848 7.77375 23.5781 6.68048 23.5781 5.33667C23.5781 3.99286 22.4848 2.89959 21.141 2.89959H20.356C20.1758 1.50684 18.974 0.421875 17.5384 0.421875C16.7789 0.421875 16.0653 0.717937 15.5291 1.25555C15.051 1.73494 14.7645 2.35608 14.7078 3.02564C13.7303 3.37087 13.0669 4.28859 13.0669 5.33667C13.0669 6.68048 14.1602 7.77375 15.504 7.77375ZM15.1036 3.59161C15.1749 3.57414 15.2384 3.53323 15.2837 3.47544C15.329 3.41765 15.3537 3.34631 15.3537 3.27286C15.3536 2.68481 15.581 2.13295 15.9938 1.719C16.406 1.3057 16.9545 1.07812 17.5384 1.07812C18.7266 1.07812 19.7065 2.04445 19.7229 3.23222C19.7241 3.31845 19.7592 3.40075 19.8206 3.4613C19.882 3.52186 19.9648 3.55581 20.051 3.5558H21.141C22.123 3.5558 22.9219 4.35469 22.9219 5.33667C22.9219 6.31866 22.123 7.1175 21.141 7.1175H15.504C14.5221 7.1175 13.7232 6.31861 13.7232 5.33667C13.7232 4.50825 14.2908 3.79064 15.1036 3.59161Z" fill="#3C7E80"/>
</g>
<defs>
<clipPath id="clip0_50_4982">
<rect width="24" height="24" fill="white"/>
</clipPath>
</defs>
</svg>
