<svg width="24" height="24" viewBox="0 0 24 24" fill="none" xmlns="http://www.w3.org/2000/svg">
<path d="M6.36116 7.3986C6.42364 7.46108 6.50556 7.49236 6.5874 7.49236C6.66924 7.49236 6.75116 7.46108 6.81364 7.3986L7.03988 7.17236L7.26612 7.3986C7.3286 7.46108 7.41052 7.49236 7.49236 7.49236C7.5742 7.49236 7.65612 7.46108 7.7186 7.3986C7.77859 7.33859 7.81229 7.25722 7.81229 7.17236C7.81229 7.08751 7.77859 7.00613 7.7186 6.94612L7.49236 6.71988L7.7186 6.49364C7.74917 6.46412 7.77354 6.42881 7.79032 6.38977C7.80709 6.35073 7.81591 6.30874 7.81628 6.26625C7.81665 6.22376 7.80856 6.18162 7.79247 6.1423C7.77638 6.10297 7.75261 6.06724 7.72257 6.0372C7.69252 6.00715 7.65679 5.98339 7.61747 5.9673C7.57814 5.95121 7.536 5.94311 7.49351 5.94348C7.45102 5.94385 7.40903 5.95268 7.36999 5.96945C7.33095 5.98622 7.29564 6.0106 7.26612 6.04116L7.03988 6.2674L6.81364 6.04116C6.78412 6.0106 6.74881 5.98622 6.70977 5.96945C6.67073 5.95268 6.62874 5.94385 6.58625 5.94348C6.54376 5.94311 6.50162 5.95121 6.4623 5.9673C6.42297 5.98339 6.38724 6.00715 6.3572 6.0372C6.32715 6.06724 6.30339 6.10297 6.2873 6.1423C6.27121 6.18162 6.26311 6.22376 6.26348 6.26625C6.26385 6.30874 6.27268 6.35073 6.28945 6.38977C6.30622 6.42881 6.3306 6.46412 6.36116 6.49364L6.5874 6.71988L6.36116 6.94612C6.33143 6.97582 6.30784 7.01109 6.29175 7.04991C6.27566 7.08873 6.26737 7.13034 6.26737 7.17236C6.26737 7.21439 6.27566 7.256 6.29175 7.29482C6.30784 7.33364 6.33143 7.36891 6.36116 7.3986ZM4.79988 14.7199C4.27052 14.7199 3.83988 15.1505 3.83988 15.6799C3.83988 16.2092 4.27052 16.6399 4.79988 16.6399C5.32924 16.6399 5.75988 16.2092 5.75988 15.6799C5.75988 15.1505 5.32924 14.7199 4.79988 14.7199ZM4.79988 15.9999C4.62348 15.9999 4.47988 15.8564 4.47988 15.6799C4.47988 15.5033 4.62348 15.3599 4.79988 15.3599C4.97628 15.3599 5.11988 15.5033 5.11988 15.6799C5.11988 15.8564 4.97628 15.9999 4.79988 15.9999ZM7.215 18.0355C7.16741 18.0354 7.12027 18.0447 7.07627 18.0628C7.03227 18.081 6.99227 18.1076 6.95856 18.1412C6.92485 18.1748 6.89808 18.2147 6.87979 18.2586C6.8615 18.3025 6.85205 18.3497 6.85196 18.3972C6.85188 18.4448 6.86117 18.492 6.8793 18.536C6.89744 18.58 6.92406 18.62 6.95765 18.6537C6.99125 18.6874 7.03115 18.7142 7.07509 18.7325C7.11902 18.7507 7.16613 18.7602 7.21372 18.7603C7.30984 18.7605 7.40208 18.7224 7.47017 18.6546C7.53825 18.5867 7.57659 18.4946 7.57676 18.3985C7.57693 18.3024 7.53891 18.2102 7.47107 18.1421C7.40323 18.074 7.31112 18.0357 7.215 18.0355ZM10.5599 2.87988C10.3832 2.87988 10.2399 3.023 10.2399 3.19988V20.7999C10.2399 20.9768 10.3832 21.1199 10.5599 21.1199C10.7366 21.1199 10.8799 20.9768 10.8799 20.7999V3.19988C10.8799 3.023 10.7366 2.87988 10.5599 2.87988ZM12.4799 6.39988H18.8799C19.0566 6.39988 19.1999 6.25676 19.1999 6.07988V4.79988C19.1999 4.623 19.0566 4.47988 18.8799 4.47988H12.4799C12.3032 4.47988 12.1599 4.623 12.1599 4.79988V6.07988C12.1599 6.25676 12.3032 6.39988 12.4799 6.39988ZM12.7999 5.11988H18.5599V5.75988H12.7999V5.11988ZM18.8799 17.2799H12.4799C12.3032 17.2799 12.1599 17.423 12.1599 17.5999V18.8799C12.1599 19.0568 12.3032 19.1999 12.4799 19.1999H18.8799C19.0566 19.1999 19.1999 19.0568 19.1999 18.8799V17.5999C19.1999 17.423 19.0566 17.2799 18.8799 17.2799ZM18.5599 18.5599H12.7999V17.9199H18.5599V18.5599ZM20.7999 7.67988H12.4799C12.3032 7.67988 12.1599 7.823 12.1599 7.99988V9.27988C12.1599 9.45676 12.3032 9.59988 12.4799 9.59988H20.7999C20.9766 9.59988 21.1199 9.45676 21.1199 9.27988V7.99988C21.1199 7.823 20.9766 7.67988 20.7999 7.67988ZM20.4799 8.95988H12.7999V8.31988H20.4799V8.95988ZM12.4799 12.7999H18.8799C19.0566 12.7999 19.1999 12.6568 19.1999 12.4799V11.1999C19.1999 11.023 19.0566 10.8799 18.8799 10.8799H12.4799C12.3032 10.8799 12.1599 11.023 12.1599 11.1999V12.4799C12.1599 12.6568 12.3032 12.7999 12.4799 12.7999ZM12.7999 11.5199H18.5599V12.1599H12.7999V11.5199ZM20.7999 14.0799H12.4799C12.3032 14.0799 12.1599 14.223 12.1599 14.3999V15.6799C12.1599 15.8568 12.3032 15.9999 12.4799 15.9999H20.7999C20.9766 15.9999 21.1199 15.8568 21.1199 15.6799V14.3999C21.1199 14.223 20.9766 14.0799 20.7999 14.0799ZM20.4799 15.3599H12.7999V14.7199H20.4799V15.3599ZM9.14172 11.7364L6.59404 9.97644C6.54601 9.94325 6.48981 9.92383 6.43153 9.92029C6.37324 9.91675 6.31511 9.92922 6.26341 9.95636C6.21171 9.98349 6.16842 10.0243 6.13822 10.0742C6.10803 10.1242 6.09209 10.1815 6.09212 10.2399V11.1999H3.19988C3.02316 11.1999 2.87988 11.343 2.87988 11.5199V12.4799C2.87988 12.6568 3.02316 12.7999 3.19988 12.7999H6.0922V13.7599C6.09217 13.8019 6.10043 13.8435 6.1165 13.8824C6.13257 13.9212 6.15614 13.9565 6.18586 13.9862C6.21558 14.0159 6.25087 14.0395 6.28971 14.0556C6.32855 14.0717 6.37017 14.0799 6.4122 14.0799C6.47596 14.0799 6.53956 14.0608 6.59404 14.0233L9.14172 12.2633C9.22828 12.2033 9.27988 12.1049 9.27988 11.9999C9.27988 11.8948 9.22828 11.7964 9.14172 11.7364ZM6.7322 13.1499V12.4799C6.7322 12.303 6.58892 12.1599 6.4122 12.1599H3.51988V11.8399H6.4122C6.58892 11.8399 6.7322 11.6968 6.7322 11.5199V10.8499L8.39692 11.9999L6.7322 13.1499Z" fill="#3C7E80"/>
</svg>
