<svg width="45" height="45" viewBox="0 0 45 45" fill="none" xmlns="http://www.w3.org/2000/svg">
<path d="M28.7193 27.0596L26.6612 25.8023L28.7213 24.531C28.8256 24.4667 28.9002 24.3637 28.9288 24.2445C28.9573 24.1253 28.9374 23.9997 28.8735 23.8951L27.0867 20.9714C27.0224 20.8666 26.9191 20.7915 26.7995 20.7628C26.6799 20.734 26.5538 20.7538 26.4488 20.8179L24.6792 21.9045V20.1561C24.6792 20.0953 24.6672 20.035 24.644 19.9788C24.6207 19.9226 24.5866 19.8716 24.5436 19.8286C24.5005 19.7855 24.4495 19.7514 24.3933 19.7281C24.3371 19.7049 24.2768 19.6929 24.216 19.6929H20.79C20.6672 19.6929 20.5494 19.7417 20.4625 19.8286C20.3756 19.9154 20.3268 20.0332 20.3268 20.1561V21.9045L18.5579 20.8192C18.5061 20.7873 18.4485 20.766 18.3884 20.7564C18.3283 20.7468 18.2669 20.7492 18.2077 20.7633C18.1486 20.7774 18.0927 20.8031 18.0435 20.8388C17.9942 20.8745 17.9525 20.9196 17.9206 20.9714L16.1272 23.8951C16.0631 23.9996 16.043 24.1254 16.0714 24.2447C16.0998 24.3641 16.1744 24.4673 16.2788 24.5317L18.3435 25.8036L16.2808 27.0596C16.2287 27.0913 16.1833 27.133 16.1474 27.1822C16.1114 27.2315 16.0855 27.2873 16.0712 27.3466C16.0569 27.4059 16.0544 27.4674 16.0639 27.5276C16.0734 27.5878 16.0947 27.6456 16.1266 27.6976L17.9206 30.6206C17.9525 30.6724 17.9942 30.7175 18.0435 30.7532C18.0927 30.7889 18.1486 30.8146 18.2077 30.8287C18.2669 30.8428 18.3283 30.8452 18.3884 30.8356C18.4485 30.826 18.5061 30.8047 18.5579 30.7728L20.3268 29.6875V31.4246C20.3268 31.5475 20.3756 31.6653 20.4625 31.7522C20.5494 31.8391 20.6672 31.8879 20.79 31.8879H24.216C24.3389 31.8879 24.4567 31.8391 24.5436 31.7522C24.6304 31.6653 24.6792 31.5475 24.6792 31.4246V29.6868L26.4488 30.7721C26.5537 30.8363 26.6798 30.8562 26.7994 30.8275C26.9189 30.7989 27.0223 30.724 27.0867 30.6193L28.8735 27.6963C28.9375 27.5913 28.9572 27.4652 28.9283 27.3457C28.8994 27.2262 28.8242 27.1237 28.7193 27.0596ZM26.5381 29.7398L24.4582 28.4646C24.3879 28.4217 24.3075 28.3983 24.2253 28.3968C24.143 28.3953 24.0618 28.4157 23.99 28.4559C23.9182 28.4961 23.8584 28.5547 23.8167 28.6256C23.775 28.6966 23.7529 28.7773 23.7528 28.8596V30.9607H21.2533V28.8596C21.2533 28.4957 20.8542 28.2773 20.5478 28.4646L18.4679 29.7404L17.1596 27.6082L19.4711 26.2C19.5387 26.1587 19.5946 26.1008 19.6334 26.0318C19.6723 25.9628 19.6928 25.885 19.693 25.8058C19.6932 25.7266 19.6731 25.6487 19.6346 25.5795C19.5961 25.5103 19.5405 25.4521 19.4731 25.4105L17.1583 23.9851L18.4686 21.8502L20.5478 23.1268C20.6181 23.1698 20.6985 23.1934 20.7808 23.195C20.8632 23.1967 20.9445 23.1763 21.0164 23.1361C21.0883 23.0958 21.1481 23.0371 21.1897 22.966C21.2314 22.895 21.2533 22.8141 21.2533 22.7317V20.6187H23.7528V22.7317C23.7527 22.8141 23.7747 22.895 23.8163 22.966C23.8579 23.0371 23.9178 23.0958 23.9896 23.1361C24.0615 23.1763 24.1428 23.1967 24.2252 23.195C24.3075 23.1934 24.388 23.1698 24.4582 23.1268L26.5381 21.8502L27.8425 23.9851L25.5329 25.4105C25.4655 25.4521 25.41 25.5103 25.3715 25.5795C25.333 25.6487 25.3129 25.7266 25.3131 25.8058C25.3133 25.885 25.3338 25.9628 25.3726 26.0318C25.4114 26.1008 25.4673 26.1587 25.5349 26.2L27.8411 27.6082L26.5381 29.7398ZM4.12217 24.4483C4.183 24.4483 4.24324 24.4363 4.29944 24.4131C4.35565 24.3898 4.40671 24.3557 4.44973 24.3126C4.49274 24.2696 4.52686 24.2186 4.55014 24.1624C4.57342 24.1061 4.58541 24.0459 4.58541 23.9851V21.3519C4.58541 21.2291 4.5366 21.1112 4.44973 21.0244C4.36285 20.9375 4.24503 20.8887 4.12217 20.8887C3.99931 20.8887 3.88149 20.9375 3.79461 21.0244C3.70774 21.1112 3.65894 21.2291 3.65894 21.3519V23.9851C3.65894 24.0459 3.67092 24.1061 3.6942 24.1624C3.71748 24.2186 3.7516 24.2696 3.79461 24.3126C3.83763 24.3557 3.8887 24.3898 3.9449 24.4131C4.0011 24.4363 4.06134 24.4483 4.12217 24.4483ZM4.4471 25.8188C4.30349 25.6521 3.99048 25.6229 3.79195 25.8188C3.70772 25.9071 3.66073 26.0244 3.66073 26.1464C3.66073 26.2684 3.70772 26.3857 3.79195 26.474C3.99511 26.6619 4.2843 26.6394 4.4471 26.474C4.64695 26.2741 4.61651 25.9644 4.4471 25.8188Z" fill="#3C7E80"/>
<path d="M44.1396 13.4974C44.1396 11.5379 42.5455 9.94372 40.586 9.94372H32.1299V7.92733C32.1299 5.39343 30.0679 3.33203 27.5333 3.33203H16.5507C14.0161 3.33203 11.9541 5.39343 11.9541 7.92733V9.94306H4.99627C3.8997 9.94429 2.8484 10.3804 2.07301 11.1558C1.29762 11.9312 0.861463 12.9825 0.860237 14.0791L0.827148 38.0813C0.828199 39.0322 1.20643 39.9439 1.87885 40.6164C2.55127 41.2888 3.46297 41.667 4.41391 41.6681H40.0036C42.3026 41.6681 44.1727 39.7979 44.1727 37.4989L44.1396 13.4974ZM12.8812 7.92733C12.8822 6.9545 13.2692 6.02183 13.9572 5.334C14.6451 4.64617 15.5779 4.25938 16.5507 4.2585H27.5333C28.5062 4.25938 29.4389 4.64617 30.1268 5.334C30.8148 6.02183 31.2018 6.9545 31.2028 7.92733V9.94306H29.3757V7.92799C29.375 7.43988 29.1807 6.97198 28.8354 6.62696C28.4901 6.28193 28.0221 6.08797 27.534 6.08762H16.5507C16.0627 6.08814 15.5948 6.28219 15.2497 6.62719C14.9046 6.97219 14.7104 7.43999 14.7097 7.92799V9.94372H12.8812V7.92733ZM28.4479 7.92733V9.94306H15.6361V7.92799C15.6361 7.42438 16.0464 7.01475 16.5507 7.01475H27.5333C28.0376 7.01475 28.4479 7.42372 28.4479 7.92733ZM1.78671 14.0798C1.78776 13.2288 2.12624 12.4131 2.72793 11.8114C3.32961 11.2097 4.14536 10.8712 4.99627 10.8702C10.0111 10.8702 24.9736 10.8735 40.586 10.8702C42.0352 10.8702 43.2132 12.0481 43.2132 13.4974V16.2616H1.78671V14.0798ZM1.78671 17.1881H43.2132V34.3575H1.78671V17.1881ZM43.1801 37.4996C43.1801 39.2506 41.7553 40.6761 40.0036 40.6761H4.41391C3.72618 40.6752 3.06686 40.4016 2.58056 39.9153C2.09426 39.429 1.82067 38.7697 1.8198 38.082V35.3502H43.1801V37.4996Z" fill="#3C7E80"/>
</svg>
