<svg width="24" height="24" viewBox="0 0 24 24" fill="none" xmlns="http://www.w3.org/2000/svg">
<path d="M10.7486 17.5713C12.0585 16.2613 12.3367 14.4501 12.3479 14.3737L12.4163 13.9065L11.949 13.9749C11.8726 13.9861 10.0613 14.2642 8.75138 15.5742C8.37084 15.9547 8.07745 16.3763 7.85156 16.7881V15.0728H7.14844V18.4712H6.35156V12.4243H7.14844V14.3228H7.85156V12.4243H8.25C9.27094 12.4243 10.1016 11.5937 10.1016 10.5728V6.82275C10.1016 6.21535 9.60741 5.72119 9 5.72119C8.7645 5.72119 8.5462 5.79572 8.36695 5.9221C8.05003 5.35538 7.44417 4.97119 6.75 4.97119C6.05583 4.97119 5.45002 5.35538 5.13305 5.9221C4.94792 5.79121 4.72673 5.72101 4.5 5.72119C3.89259 5.72119 3.39844 6.21535 3.39844 6.82275V10.5728C3.39844 11.5937 4.22906 12.4243 5.25 12.4243H5.64844V16.7881C5.4225 16.3763 5.12911 15.9547 4.74862 15.5742C3.43866 14.2642 1.62741 13.9861 1.55095 13.9749L1.0837 13.9065L1.15214 14.3737C1.16334 14.4501 1.44145 16.2614 2.75137 17.5713C3.13191 17.9518 3.55345 18.2452 3.96534 18.4711H0V19.1743H13.875V18.4711H9.53461C9.9465 18.2452 10.3681 17.9518 10.7486 17.5713ZM8.60156 10.5727V6.82271C8.60156 6.603 8.78034 6.42427 9 6.42427C9.21966 6.42427 9.39844 6.603 9.39844 6.82271V10.5727C9.39844 11.2059 8.88328 11.7211 8.25 11.7211H8.20139C8.46092 11.3947 8.602 10.9898 8.60156 10.5727ZM5.25 11.7211C4.61672 11.7211 4.10156 11.2059 4.10156 10.5727V6.82271C4.10156 6.603 4.2803 6.42427 4.5 6.42427C4.7197 6.42427 4.89844 6.603 4.89844 6.82271V10.5727C4.898 10.9898 5.03908 11.3947 5.29861 11.7211H5.25ZM3.24863 17.0741C2.50505 16.3306 2.1368 15.3731 1.96978 14.7917C2.55014 14.9577 3.50494 15.3248 4.25142 16.0713C5.00095 16.8208 5.36864 17.7878 5.5312 18.3538C4.96514 18.1913 3.99816 17.8237 3.24863 17.0741ZM5.60156 10.5727V6.82271C5.60156 6.18947 6.11672 5.67427 6.75 5.67427C7.38328 5.67427 7.89844 6.18947 7.89844 6.82271V10.5727C7.89844 11.0834 7.56337 11.517 7.10156 11.6659V9.07271H6.39844V11.6659C5.93663 11.5171 5.60156 11.0834 5.60156 10.5727ZM9.24862 16.0713C9.99216 15.3277 10.9496 14.9595 11.531 14.7925C11.365 15.3728 10.9979 16.3276 10.2514 17.0741C9.50184 17.8237 8.53491 18.1913 7.96889 18.3539C8.13141 17.7878 8.49909 16.8209 9.24862 16.0713Z" fill="#3C7E80"/>
<path d="M24 6.4244V5.72128H17.8544L17.25 6.32568L15.75 4.82568L13.1484 7.42725V8.92725L11.6484 10.4272V13.1744H17.3956L19.6456 10.9244H24V10.2213H22.8516V6.4244H24ZM13.8516 9.21848V7.71848L15.75 5.82004L16.7528 6.82289L14.5028 9.07289L15.6512 10.2213H12.8487L13.8516 9.21848ZM22.1484 10.2213H19.3544L17.1044 12.4713H12.3516V10.9244H16.6456L18.6236 8.94642L18.1264 8.44926L16.5 10.0757L15.4972 9.07289L18.1456 6.42445H22.1484V10.2213ZM14.625 18.4713H24V19.1744H14.625V18.4713Z" fill="#3C7E80"/>
<path d="M20.25 7.59619H21V8.29932H20.25V7.59619ZM21 6.84619H21.75V7.54932H21V6.84619Z" fill="#3C7E80"/>
</svg>
