<svg width="24" height="24" viewBox="0 0 24 24" fill="none" xmlns="http://www.w3.org/2000/svg">
<path d="M18.0551 13.9028H5.94472C5.82904 13.9028 5.71809 13.9488 5.6363 14.0306C5.5545 14.1124 5.50854 14.2233 5.50854 14.339V16.2958C5.50854 16.3531 5.51983 16.4098 5.54175 16.4627C5.56367 16.5156 5.5958 16.5637 5.6363 16.6042C5.6768 16.6447 5.72489 16.6768 5.7778 16.6987C5.83072 16.7207 5.88744 16.7319 5.94472 16.7319H18.0551C18.1124 16.7319 18.1691 16.7207 18.222 16.6987C18.2749 16.6768 18.323 16.6447 18.3635 16.6042C18.404 16.5637 18.4362 16.5156 18.4581 16.4627C18.48 16.4098 18.4913 16.3531 18.4913 16.2958V14.339C18.4913 14.2233 18.4453 14.1124 18.3635 14.0306C18.2817 13.9488 18.1708 13.9028 18.0551 13.9028Z" stroke="#3C7E80" stroke-width="0.7" stroke-miterlimit="10" stroke-linecap="round" stroke-linejoin="round"/>
<path d="M6.52272 18.3198H17.477L17.7368 16.7323H6.26294L6.52272 18.3198Z" stroke="#3C7E80" stroke-width="0.7" stroke-miterlimit="10" stroke-linecap="round" stroke-linejoin="round"/>
<path d="M12.0109 6.37187C12.0109 5.85142 12.5669 5.41408 13.3196 5.28967C13.4439 5.26914 13.5203 5.14075 13.4759 5.02282C13.2384 4.39361 13.2882 3.77519 13.6111 3.45837C13.3222 3.27246 12.9569 3.13521 12.5477 3.06757C12.3825 3.04024 12.281 2.86967 12.3401 2.71296C12.6984 1.76304 12.5649 0.831032 11.9653 0.484908C11.3665 0.139112 10.4937 0.488329 9.85047 1.27189C9.82545 1.30247 9.79394 1.32711 9.75823 1.34403C9.72252 1.36095 9.6835 1.36973 9.64399 1.36973C9.60447 1.36973 9.56545 1.36095 9.52974 1.34403C9.49403 1.32711 9.46253 1.30247 9.4375 1.27189C8.79424 0.488329 7.92152 0.139112 7.3226 0.484908C6.72308 0.831032 6.58953 1.76304 6.94784 2.71296C7.007 2.86967 6.90546 3.04024 6.74018 3.06757C5.74002 3.2329 5.00122 3.81405 5.00122 4.50565C5.00122 5.19714 5.74002 5.7783 6.74018 5.94367C6.90546 5.97095 7.007 6.14153 6.94784 6.29828C6.58953 7.24815 6.72308 8.18017 7.3226 8.52634C7.92152 8.87209 8.79424 8.52287 9.4375 7.73935C9.46252 7.70876 9.49402 7.68411 9.52973 7.66718C9.56544 7.65025 9.60447 7.64146 9.64399 7.64146C9.68351 7.64146 9.72253 7.65025 9.75824 7.66718C9.79395 7.68411 9.82546 7.70876 9.85047 7.73935C10.4937 8.52287 11.3665 8.87209 11.9653 8.52634C12.377 8.28863 12.5689 7.77475 12.5328 7.16847C12.2108 6.96573 12.0109 6.68378 12.0109 6.37187Z" stroke="#3C7E80" stroke-width="0.7" stroke-miterlimit="10" stroke-linecap="round" stroke-linejoin="round"/>
<path d="M15.5049 5.17339C14.8431 5.17339 14.3066 5.70983 14.3066 6.37161C14.3066 7.03339 14.8431 7.56982 15.5049 7.56982C16.1666 7.56982 16.7031 7.03339 16.7031 6.37161C16.7031 5.70983 16.1666 5.17339 15.5049 5.17339Z" stroke="#3C7E80" stroke-width="0.7" stroke-miterlimit="10" stroke-linecap="round" stroke-linejoin="round"/>
<path d="M17.69 5.28925C17.5657 5.26872 17.4893 5.14033 17.5338 5.02239C17.8035 4.30755 17.7029 3.6062 17.2517 3.34572C16.801 3.08547 16.1443 3.3483 15.6602 3.93794C15.6414 3.96096 15.6177 3.9795 15.5908 3.99224C15.5639 4.00497 15.5345 4.01158 15.5048 4.01158C15.4751 4.01158 15.4457 4.00497 15.4188 3.99224C15.392 3.9795 15.3682 3.96096 15.3494 3.93794C14.8653 3.3483 14.2086 3.08547 13.7579 3.34567C13.3067 3.60621 13.2062 4.30755 13.4759 5.02239C13.5204 5.14033 13.444 5.26872 13.3196 5.28925C12.567 5.41365 12.011 5.851 12.011 6.37145C12.011 6.89185 12.567 7.32924 13.3196 7.45365C13.444 7.47418 13.5204 7.60257 13.4759 7.72051C13.2062 8.4353 13.3067 9.13669 13.7579 9.39722C14.2086 9.65742 14.8653 9.39459 15.3494 8.80495C15.3682 8.78194 15.392 8.76339 15.4188 8.75066C15.4457 8.73792 15.4751 8.73131 15.5048 8.73131C15.5345 8.73131 15.5639 8.73792 15.5908 8.75066C15.6177 8.76339 15.6414 8.78194 15.6602 8.80495C16.1443 9.39459 16.801 9.65742 17.2517 9.39722C17.7029 9.13669 17.8035 8.4353 17.5338 7.72051C17.4893 7.60257 17.5657 7.47418 17.69 7.45365C18.4427 7.32924 18.9987 6.89185 18.9987 6.37145C18.9987 5.851 18.4427 5.41365 17.69 5.28925Z" stroke="#3C7E80" stroke-width="0.7" stroke-miterlimit="10" stroke-linecap="round" stroke-linejoin="round"/>
<path d="M13.5968 9.27108C12.7853 10.3934 12.0225 11.9542 12.0225 13.856" stroke="#3C7E80" stroke-width="0.7" stroke-miterlimit="10" stroke-linecap="round" stroke-linejoin="round"/>
<path d="M11.2795 8.64755C11.7134 10.131 12.0223 11.8807 12.0223 13.856" stroke="#3C7E80" stroke-width="0.7" stroke-miterlimit="10" stroke-linecap="round" stroke-linejoin="round"/>
<path d="M9.02152 9.9263C8.80196 9.82931 8.59613 10.0872 8.7384 10.2805C9.2371 10.958 9.88172 12.169 9.88172 13.9028H12C12 13.9028 11.5824 11.0573 9.02152 9.9263Z" stroke="#3C7E80" stroke-width="0.7" stroke-miterlimit="10" stroke-linecap="round" stroke-linejoin="round"/>
<path d="M7.79293 11.121C7.63932 11.0532 7.49537 11.2336 7.59488 11.3688C7.94373 11.8427 8.39466 12.6899 8.39466 13.9028H9.87647C9.87647 13.9028 9.58439 11.9122 7.79293 11.121Z" stroke="#3C7E80" stroke-width="0.7" stroke-miterlimit="10" stroke-linecap="round" stroke-linejoin="round"/>
<path d="M14.7188 10.576C14.9025 10.4949 15.0747 10.7107 14.9557 10.8723C14.5385 11.4391 13.9992 12.4523 13.9992 13.9028H12.2271C12.2271 13.9028 12.5764 11.5222 14.7188 10.576Z" stroke="#3C7E80" stroke-width="0.7" stroke-miterlimit="10" stroke-linecap="round" stroke-linejoin="round"/>
<path d="M10.5582 5.80844C10.9681 5.52034 11.2362 5.04424 11.2362 4.50518C11.2362 3.6258 10.5233 2.91293 9.644 2.91293C8.76463 2.91293 8.05176 3.6258 8.05176 4.50518C8.05176 5.12275 8.4036 5.65783 8.91754 5.92188" stroke="#3C7E80" stroke-width="0.7" stroke-miterlimit="10" stroke-linecap="round" stroke-linejoin="round"/>
<path d="M17.2184 19.9002L17.7368 16.7322H6.26294L7.29639 23.0478C7.3238 23.2154 7.40988 23.3677 7.53926 23.4776C7.66863 23.5876 7.83288 23.6479 8.00265 23.6479H15.997C16.3477 23.6479 16.6467 23.3939 16.7033 23.0478L16.9499 21.5408" stroke="#3C7E80" stroke-width="0.7" stroke-miterlimit="10" stroke-linecap="round" stroke-linejoin="round"/>
</svg>
